<svg width="1069" height="700" viewBox="0 0 1069 700" fill="none" xmlns="http://www.w3.org/2000/svg">
<g filter="url(#filter0_d_387_5566)">
<path d="M560.224 37.0016C559.33 38.0036 558.243 38.5372 556.963 38.6026C558.243 38.6679 559.33 39.2016 560.224 40.2144C561.118 41.2164 561.566 42.4144 561.566 43.7975C561.566 42.8827 561.769 42.0441 562.175 41.2599C562.592 40.4758 563.151 39.8441 563.852 39.3758C564.563 38.8966 565.335 38.6461 566.179 38.6026C564.888 38.5263 563.801 38.0036 562.907 37.0016C562.013 35.9997 561.566 34.8126 561.566 33.4294C561.566 34.8126 561.118 35.9997 560.224 37.0016Z" fill="#E9E9E9"/>
<path d="M951.908 15.1145C951.014 16.1165 949.927 16.6501 948.646 16.7155C949.927 16.7808 951.014 17.3145 951.908 18.3273C952.802 19.3293 953.249 20.5273 953.249 21.9104C953.249 20.9956 953.453 20.157 953.859 19.3728C954.276 18.5887 954.835 17.957 955.536 17.4887C956.247 17.0095 957.019 16.759 957.863 16.7155C956.572 16.6392 955.485 16.1165 954.591 15.1145C953.697 14.1126 953.249 12.9255 953.249 11.5423C953.249 12.9255 952.802 14.1126 951.908 15.1145Z" fill="#E9E9E9"/>
<path d="M92.5103 209.803C91.6161 210.805 90.5289 211.338 89.2486 211.404C90.5289 211.469 91.6161 212.003 92.5103 213.016C93.4045 214.018 93.8516 215.215 93.8516 216.599C93.8516 215.684 94.0548 214.845 94.4612 214.061C94.8778 213.277 95.4367 212.645 96.1378 212.177C96.8491 211.698 97.6213 211.447 98.4647 211.404C97.1742 211.327 96.087 210.805 95.1928 209.803C94.2986 208.801 93.8516 207.614 93.8516 206.231C93.8516 207.614 93.4045 208.801 92.5103 209.803Z" fill="#E9E9E9"/>
<path d="M155.87 557.709C154.976 558.711 153.889 559.245 152.608 559.31C153.889 559.376 154.976 559.909 155.87 560.922C156.764 561.924 157.211 563.122 157.211 564.505C157.211 563.59 157.414 562.752 157.821 561.968C158.238 561.183 158.796 560.552 159.497 560.083C160.209 559.604 160.981 559.354 161.824 559.31C160.534 559.234 159.447 558.711 158.553 557.709C157.658 556.707 157.211 555.52 157.211 554.137C157.211 555.52 156.764 556.707 155.87 557.709Z" fill="#E9E9E9"/>
<path d="M463.458 416.014C462.564 417.016 461.477 417.55 460.197 417.615C461.477 417.68 462.564 418.214 463.458 419.227C464.352 420.229 464.799 421.427 464.799 422.81C464.799 421.895 465.003 421.057 465.409 420.272C465.826 419.488 466.385 418.857 467.086 418.388C467.797 417.909 468.569 417.659 469.413 417.615C468.122 417.539 467.035 417.016 466.141 416.014C465.247 415.012 464.799 413.825 464.799 412.442C464.799 413.825 464.352 415.012 463.458 416.014Z" fill="#E9E9E9"/>
<path d="M7.26182 285.834C6.36764 286.836 5.28041 287.37 4.00012 287.435C5.28041 287.501 6.36764 288.034 7.26182 289.047C8.15599 290.049 8.60307 291.247 8.60307 292.63C8.60307 291.715 8.80629 290.877 9.21274 290.093C9.62934 289.308 10.1882 288.677 10.8893 288.208C11.6006 287.729 12.3728 287.479 13.2162 287.435C11.9257 287.359 10.8385 286.836 9.94433 285.834C9.05016 284.832 8.60307 283.645 8.60307 282.262C8.60307 283.645 8.15599 284.832 7.26182 285.834Z" fill="#E9E9E9"/>
<path d="M70.6225 633.741C69.7283 634.743 68.6411 635.277 67.3608 635.342C68.6411 635.408 69.7283 635.941 70.6225 636.954C71.5167 637.956 71.9638 639.154 71.9638 640.537C71.9638 639.622 72.167 638.784 72.5734 638C72.99 637.215 73.5489 636.584 74.25 636.115C74.9613 635.636 75.7335 635.386 76.5769 635.342C75.2864 635.266 74.1992 634.743 73.305 633.741C72.4109 632.739 71.9638 631.552 71.9638 630.169C71.9638 631.552 71.5167 632.739 70.6225 633.741Z" fill="#E9E9E9"/>
<path d="M246.879 327.308C245.985 328.31 244.898 328.844 243.617 328.909C244.898 328.975 245.985 329.508 246.879 330.521C247.773 331.523 248.22 332.721 248.22 334.104C248.22 333.189 248.423 332.351 248.83 331.567C249.246 330.783 249.805 330.151 250.506 329.683C251.218 329.203 251.99 328.953 252.833 328.909C251.543 328.833 250.456 328.31 249.561 327.308C248.667 326.306 248.22 325.119 248.22 323.736C248.22 325.119 247.773 326.306 246.879 327.308Z" fill="#E9E9E9"/>
<path d="M310.24 675.215C309.345 676.217 308.258 676.751 306.978 676.816C308.258 676.881 309.345 677.415 310.24 678.428C311.134 679.43 311.581 680.628 311.581 682.011C311.581 681.096 311.784 680.258 312.191 679.473C312.607 678.689 313.166 678.058 313.867 677.589C314.578 677.11 315.351 676.86 316.194 676.816C314.904 676.74 313.816 676.217 312.922 675.215C312.028 674.213 311.581 673.026 311.581 671.643C311.581 673.026 311.134 674.213 310.24 675.215Z" fill="#E9E9E9"/>
<path d="M617.828 533.517C616.933 534.519 615.846 535.052 614.566 535.118C615.846 535.183 616.933 535.717 617.828 536.729C618.722 537.731 619.169 538.929 619.169 540.312C619.169 539.398 619.372 538.559 619.778 537.775C620.195 536.991 620.754 536.359 621.455 535.891C622.166 535.412 622.939 535.161 623.782 535.118C622.491 535.041 621.404 534.519 620.51 533.517C619.616 532.515 619.169 531.328 619.169 529.944C619.169 531.328 618.722 532.515 617.828 533.517Z" fill="#E9E9E9"/>
<path d="M629.346 205.197C628.452 206.199 627.364 206.732 626.084 206.798C627.364 206.863 628.452 207.397 629.346 208.409C630.24 209.411 630.687 210.609 630.687 211.993C630.687 211.078 630.89 210.239 631.297 209.455C631.713 208.671 632.272 208.039 632.973 207.571C633.685 207.092 634.457 206.841 635.3 206.798C634.01 206.721 632.923 206.199 632.028 205.197C631.134 204.195 630.687 203.008 630.687 201.624C630.687 203.008 630.24 204.195 629.346 205.197Z" fill="#E9E9E9"/>
<path d="M425.24 126.43C424.346 127.432 423.259 127.965 421.978 128.031C423.259 128.096 424.346 128.63 425.24 129.643C426.134 130.645 426.581 131.843 426.581 133.226C426.581 132.311 426.785 131.472 427.191 130.688C427.608 129.904 428.166 129.272 428.868 128.804C429.579 128.325 430.351 128.074 431.194 128.031C429.904 127.955 428.817 127.432 427.923 126.43C427.028 125.428 426.581 124.241 426.581 122.858C426.581 124.241 426.134 125.428 425.24 126.43Z" fill="#E9E9E9"/>
<path d="M389.513 578.138C388.619 579.14 387.532 579.674 386.252 579.739C387.532 579.805 388.619 580.338 389.513 581.351C390.408 582.353 390.855 583.551 390.855 584.934C390.855 584.019 391.058 583.181 391.464 582.396C391.881 581.612 392.44 580.981 393.141 580.512C393.852 580.033 394.624 579.783 395.468 579.739C394.177 579.663 393.09 579.14 392.196 578.138C391.302 577.136 390.855 575.949 390.855 574.566C390.855 575.949 390.408 577.136 389.513 578.138Z" fill="#E9E9E9"/>
<path d="M1000.29 411.404C999.397 412.406 998.31 412.939 997.03 413.005C998.31 413.07 999.397 413.604 1000.29 414.617C1001.19 415.619 1001.63 416.817 1001.63 418.2C1001.63 417.285 1001.84 416.446 1002.24 415.662C1002.66 414.878 1003.22 414.246 1003.92 413.778C1004.63 413.299 1005.4 413.048 1006.25 413.005C1004.96 412.929 1003.87 412.406 1002.97 411.404C1002.08 410.402 1001.63 409.215 1001.63 407.832C1001.63 409.215 1001.19 410.402 1000.29 411.404Z" fill="#E9E9E9"/>
<path d="M223.841 32.395C222.947 33.397 221.86 33.9306 220.579 33.9959C221.86 34.0613 222.947 34.5949 223.841 35.6078C224.735 36.6097 225.182 37.8077 225.182 39.1909C225.182 38.276 225.386 37.4375 225.792 36.6533C226.209 35.8692 226.767 35.2375 227.469 34.7692C228.18 34.29 228.952 34.0395 229.795 33.9959C228.505 33.9197 227.418 33.397 226.524 32.395C225.629 31.393 225.182 30.2059 225.182 28.8228C225.182 30.2059 224.735 31.393 223.841 32.395Z" fill="#E9E9E9"/>
<path d="M287.201 380.301C286.307 381.303 285.22 381.837 283.939 381.902C285.22 381.968 286.307 382.501 287.201 383.514C288.095 384.516 288.542 385.714 288.542 387.097C288.542 386.182 288.746 385.344 289.152 384.56C289.569 383.775 290.127 383.144 290.829 382.675C291.54 382.196 292.312 381.946 293.155 381.902C291.865 381.826 290.778 381.303 289.884 380.301C288.989 379.299 288.542 378.112 288.542 376.729C288.542 378.112 288.095 379.299 287.201 380.301Z" fill="#E9E9E9"/>
<path d="M458.849 199.434C457.955 200.436 456.867 200.97 455.587 201.035C456.867 201.1 457.955 201.634 458.849 202.647C459.743 203.649 460.19 204.847 460.19 206.23C460.19 205.315 460.393 204.476 460.8 203.692C461.216 202.908 461.775 202.276 462.476 201.808C463.188 201.329 463.96 201.078 464.803 201.035C463.513 200.959 462.426 200.436 461.531 199.434C460.637 198.432 460.19 197.245 460.19 195.862C460.19 197.245 459.743 198.432 458.849 199.434Z" fill="#E9E9E9"/>
<path d="M254.742 120.669C253.848 121.671 252.761 122.205 251.481 122.27C252.761 122.335 253.848 122.869 254.742 123.882C255.637 124.884 256.084 126.082 256.084 127.465C256.084 126.55 256.287 125.712 256.693 124.927C257.11 124.143 257.669 123.512 258.37 123.043C259.081 122.564 259.853 122.314 260.697 122.27C259.406 122.194 258.319 121.671 257.425 120.669C256.531 119.667 256.084 118.48 256.084 117.097C256.084 118.48 255.637 119.667 254.742 120.669Z" fill="#E9E9E9"/>
<path d="M219.016 572.376C218.122 573.378 217.035 573.912 215.754 573.977C217.035 574.042 218.122 574.576 219.016 575.589C219.91 576.591 220.357 577.789 220.357 579.172C220.357 578.257 220.561 577.418 220.967 576.634C221.384 575.85 221.942 575.219 222.644 574.75C223.355 574.271 224.127 574.021 224.97 573.977C223.68 573.901 222.593 573.378 221.699 572.376C220.804 571.374 220.357 570.187 220.357 568.804C220.357 570.187 219.91 571.374 219.016 572.376Z" fill="#E9E9E9"/>
<path d="M829.796 405.644C828.902 406.646 827.814 407.179 826.534 407.245C827.814 407.31 828.902 407.844 829.796 408.856C830.69 409.858 831.137 411.056 831.137 412.44C831.137 411.525 831.34 410.686 831.747 409.902C832.163 409.118 832.722 408.486 833.423 408.018C834.135 407.539 834.907 407.288 835.75 407.245C834.46 407.168 833.372 406.646 832.478 405.644C831.584 404.642 831.137 403.455 831.137 402.071C831.137 403.455 830.69 404.642 829.796 405.644Z" fill="#E9E9E9"/>
<path d="M608.948 7.40752C608.277 8.18682 607.462 8.60188 606.501 8.65271C607.462 8.70353 608.277 9.11859 608.948 9.90636C609.618 10.6857 609.954 11.6174 609.954 12.6932C609.954 11.9817 610.106 11.3294 610.411 10.7195C610.723 10.1097 611.142 9.61836 611.668 9.25412C612.202 8.88142 612.781 8.68659 613.413 8.65271C612.446 8.59341 611.63 8.18682 610.96 7.40752C610.289 6.62822 609.954 5.70492 609.954 4.62915C609.954 5.70492 609.618 6.62822 608.948 7.40752Z" fill="#E9E9E9"/>
<path d="M418.865 325.363C418.195 326.142 417.379 326.557 416.419 326.608C417.379 326.659 418.195 327.074 418.865 327.861C419.536 328.641 419.871 329.572 419.871 330.648C419.871 329.937 420.024 329.284 420.328 328.675C420.641 328.065 421.06 327.573 421.586 327.209C422.119 326.836 422.698 326.642 423.331 326.608C422.363 326.548 421.548 326.142 420.877 325.363C420.206 324.583 419.871 323.66 419.871 322.584C419.871 323.66 419.536 324.583 418.865 325.363Z" fill="#E9E9E9"/>
<path d="M789.81 531.57C789.139 532.35 788.324 532.765 787.363 532.815C788.324 532.866 789.139 533.281 789.81 534.069C790.48 534.848 790.816 535.78 790.816 536.856C790.816 536.144 790.968 535.492 791.273 534.882C791.585 534.272 792.004 533.781 792.53 533.417C793.064 533.044 793.643 532.849 794.275 532.815C793.308 532.756 792.492 532.35 791.822 531.57C791.151 530.791 790.816 529.868 790.816 528.792C790.816 529.868 790.48 530.791 789.81 531.57Z" fill="#E9E9E9"/>
<path d="M838.196 137.584C837.525 138.364 836.71 138.779 835.75 138.829C836.71 138.88 837.525 139.295 838.196 140.083C838.867 140.862 839.202 141.794 839.202 142.87C839.202 142.158 839.354 141.506 839.659 140.896C839.972 140.286 840.391 139.795 840.917 139.431C841.45 139.058 842.029 138.863 842.662 138.829C841.694 138.77 840.878 138.364 840.208 137.584C839.537 136.805 839.202 135.882 839.202 134.806C839.202 135.882 838.867 136.805 838.196 137.584Z" fill="#E9E9E9"/>
<path d="M994.87 251.635C994.199 252.414 993.384 252.829 992.424 252.88C993.384 252.931 994.199 253.346 994.87 254.133C995.541 254.913 995.876 255.844 995.876 256.92C995.876 256.209 996.028 255.556 996.333 254.947C996.646 254.337 997.065 253.845 997.591 253.481C998.124 253.108 998.703 252.914 999.336 252.88C998.368 252.82 997.552 252.414 996.882 251.635C996.211 250.855 995.876 249.932 995.876 248.856C995.876 249.932 995.541 250.855 994.87 251.635Z" fill="#E9E9E9"/>
<path d="M686.131 141.038C685.46 141.817 684.645 142.232 683.685 142.283C684.645 142.334 685.46 142.749 686.131 143.537C686.802 144.316 687.137 145.248 687.137 146.324C687.137 145.612 687.289 144.96 687.594 144.35C687.907 143.74 688.326 143.249 688.852 142.885C689.385 142.512 689.964 142.317 690.597 142.283C689.629 142.224 688.813 141.817 688.143 141.038C687.472 140.259 687.137 139.335 687.137 138.26C687.137 139.335 686.802 140.259 686.131 141.038Z" fill="#E9E9E9"/>
<path d="M482.027 62.2756C481.356 63.0549 480.541 63.47 479.58 63.5208C480.541 63.5716 481.356 63.9867 482.027 64.7744C482.697 65.5537 483.033 66.4855 483.033 67.5613C483.033 66.8498 483.185 66.1975 483.49 65.5876C483.802 64.9777 484.221 64.4864 484.747 64.1222C485.281 63.7495 485.86 63.5547 486.492 63.5208C485.525 63.4615 484.709 63.0549 484.038 62.2756C483.368 61.4963 483.033 60.573 483.033 59.4972C483.033 60.573 482.697 61.4963 482.027 62.2756Z" fill="#E9E9E9"/>
<path d="M446.297 513.983C445.627 514.762 444.811 515.177 443.851 515.228C444.811 515.279 445.627 515.694 446.297 516.482C446.968 517.261 447.303 518.193 447.303 519.269C447.303 518.557 447.456 517.905 447.761 517.295C448.073 516.685 448.492 516.194 449.018 515.83C449.552 515.457 450.131 515.262 450.763 515.228C449.795 515.169 448.98 514.762 448.309 513.983C447.639 513.204 447.303 512.281 447.303 511.205C447.303 512.281 446.968 513.204 446.297 513.983Z" fill="#E9E9E9"/>
<path d="M689.589 317.298C688.918 318.077 688.103 318.492 687.143 318.543C688.103 318.594 688.918 319.009 689.589 319.797C690.26 320.576 690.595 321.508 690.595 322.584C690.595 321.872 690.747 321.22 691.052 320.61C691.365 320 691.784 319.509 692.309 319.145C692.843 318.772 693.422 318.577 694.055 318.543C693.087 318.484 692.271 318.077 691.601 317.298C690.93 316.519 690.595 315.595 690.595 314.52C690.595 315.595 690.26 316.519 689.589 317.298Z" fill="#E9E9E9"/>
<path d="M558.216 420.835C557.545 421.614 556.73 422.029 555.769 422.08C556.73 422.131 557.545 422.546 558.216 423.334C558.886 424.113 559.222 425.045 559.222 426.12C559.222 425.409 559.374 424.757 559.679 424.147C559.991 423.537 560.411 423.046 560.936 422.681C561.47 422.309 562.049 422.114 562.682 422.08C561.714 422.021 560.898 421.614 560.228 420.835C559.557 420.056 559.222 419.132 559.222 418.056C559.222 419.132 558.886 420.056 558.216 420.835Z" fill="#E9E9E9"/>
<path d="M870.838 298.336C870.167 299.115 869.352 299.53 868.392 299.581C869.352 299.632 870.167 300.047 870.838 300.835C871.509 301.614 871.844 302.546 871.844 303.621C871.844 302.91 871.996 302.258 872.301 301.648C872.614 301.038 873.033 300.547 873.558 300.182C874.092 299.81 874.671 299.615 875.304 299.581C874.336 299.522 873.52 299.115 872.85 298.336C872.179 297.556 871.844 296.633 871.844 295.557C871.844 296.633 871.509 297.556 870.838 298.336Z" fill="#E9E9E9"/>
<path d="M1060.53 523.506C1059.86 524.285 1059.05 524.7 1058.09 524.751C1059.05 524.802 1059.86 525.217 1060.53 526.005C1061.2 526.784 1061.54 527.716 1061.54 528.792C1061.54 528.08 1061.69 527.428 1062 526.818C1062.31 526.208 1062.73 525.717 1063.25 525.352C1063.79 524.98 1064.37 524.785 1065 524.751C1064.03 524.692 1063.22 524.285 1062.55 523.506C1061.88 522.727 1061.54 521.803 1061.54 520.727C1061.54 521.803 1061.2 522.727 1060.53 523.506Z" fill="#E9E9E9"/>
<path d="M121.645 114.545C120.974 115.324 120.159 115.74 119.199 115.79C120.159 115.841 120.974 116.256 121.645 117.044C122.316 117.823 122.651 118.755 122.651 119.831C122.651 119.119 122.803 118.467 123.108 117.857C123.421 117.247 123.84 116.756 124.366 116.392C124.899 116.019 125.478 115.824 126.111 115.79C125.143 115.731 124.328 115.324 123.657 114.545C122.986 113.766 122.651 112.843 122.651 111.767C122.651 112.843 122.316 113.766 121.645 114.545Z" fill="#E9E9E9"/>
<path d="M185.006 462.452C184.335 463.231 183.52 463.646 182.56 463.697C183.52 463.748 184.335 464.163 185.006 464.951C185.676 465.73 186.012 466.662 186.012 467.738C186.012 467.026 186.164 466.374 186.469 465.764C186.781 465.154 187.201 464.663 187.726 464.299C188.26 463.926 188.839 463.731 189.472 463.697C188.504 463.638 187.688 463.231 187.018 462.452C186.347 461.673 186.012 460.749 186.012 459.674C186.012 460.749 185.676 461.673 185.006 462.452Z" fill="#E9E9E9"/>
<path d="M114.735 342.644C114.064 343.423 113.249 343.838 112.289 343.889C113.249 343.94 114.064 344.355 114.735 345.143C115.405 345.922 115.741 346.854 115.741 347.929C115.741 347.218 115.893 346.566 116.198 345.956C116.51 345.346 116.93 344.855 117.455 344.49C117.989 344.118 118.568 343.923 119.201 343.889C118.233 343.83 117.417 343.423 116.747 342.644C116.076 341.864 115.741 340.941 115.741 339.865C115.741 340.941 115.405 341.864 114.735 342.644Z" fill="#E9E9E9"/>
<path d="M178.096 690.546C177.425 691.326 176.609 691.741 175.649 691.791C176.609 691.842 177.425 692.257 178.096 693.045C178.766 693.824 179.101 694.756 179.101 695.832C179.101 695.12 179.254 694.468 179.559 693.858C179.871 693.248 180.29 692.757 180.816 692.393C181.35 692.02 181.929 691.825 182.561 691.791C181.593 691.732 180.778 691.326 180.107 690.546C179.437 689.767 179.101 688.844 179.101 687.768C179.101 688.844 178.766 689.767 178.096 690.546Z" fill="#E9E9E9"/>
<path d="M485.682 548.852C485.011 549.631 484.196 550.046 483.235 550.097C484.196 550.148 485.011 550.563 485.682 551.351C486.352 552.13 486.688 553.062 486.688 554.137C486.688 553.426 486.84 552.774 487.145 552.164C487.457 551.554 487.876 551.063 488.402 550.698C488.936 550.326 489.515 550.131 490.147 550.097C489.18 550.038 488.364 549.631 487.694 548.852C487.023 548.072 486.688 547.149 486.688 546.073C486.688 547.149 486.352 548.072 485.682 548.852Z" fill="#E9E9E9"/>
<path d="M295.602 297.714C294.932 298.493 294.116 298.908 293.156 298.959C294.116 299.01 294.932 299.425 295.602 300.213C296.273 300.992 296.608 301.924 296.608 302.999C296.608 302.288 296.761 301.636 297.066 301.026C297.378 300.416 297.797 299.925 298.323 299.56C298.856 299.188 299.436 298.993 300.068 298.959C299.1 298.9 298.285 298.493 297.614 297.714C296.944 296.934 296.608 296.011 296.608 294.935C296.608 296.011 296.273 296.934 295.602 297.714Z" fill="#E9E9E9"/>
<path d="M358.959 645.617C358.288 646.397 357.473 646.812 356.513 646.863C357.473 646.914 358.288 647.329 358.959 648.116C359.63 648.896 359.965 649.827 359.965 650.903C359.965 650.192 360.117 649.539 360.422 648.93C360.735 648.32 361.154 647.828 361.68 647.464C362.213 647.091 362.792 646.897 363.425 646.863C362.457 646.803 361.641 646.397 360.971 645.617C360.3 644.838 359.965 643.915 359.965 642.839C359.965 643.915 359.63 644.838 358.959 645.617Z" fill="#E9E9E9"/>
<path d="M666.547 503.922C665.876 504.702 665.06 505.117 664.1 505.168C665.06 505.218 665.876 505.634 666.547 506.421C667.217 507.201 667.552 508.132 667.552 509.208C667.552 508.497 667.705 507.844 668.01 507.234C668.322 506.625 668.741 506.133 669.267 505.769C669.801 505.396 670.38 505.202 671.012 505.168C670.044 505.108 669.229 504.702 668.558 503.922C667.888 503.143 667.552 502.22 667.552 501.144C667.552 502.22 667.217 503.143 666.547 503.922Z" fill="#E9E9E9"/>
<path d="M578.306 184.239C577.563 184.979 576.66 185.373 575.596 185.421C576.66 185.47 577.563 185.864 578.306 186.611C579.049 187.351 579.42 188.236 579.42 189.257C579.42 188.582 579.589 187.963 579.927 187.384C580.273 186.805 580.737 186.338 581.319 185.992C581.91 185.638 582.552 185.453 583.252 185.421C582.18 185.365 581.277 184.979 580.534 184.239C579.792 183.499 579.42 182.623 579.42 181.601C579.42 182.623 579.049 183.499 578.306 184.239Z" fill="#E9E9E9"/>
<path d="M374.2 105.477C373.457 106.217 372.554 106.611 371.49 106.659C372.554 106.707 373.457 107.101 374.2 107.849C374.943 108.589 375.314 109.474 375.314 110.495C375.314 109.82 375.483 109.2 375.82 108.621C376.167 108.042 376.631 107.576 377.213 107.23C377.804 106.876 378.446 106.691 379.146 106.659C378.074 106.603 377.171 106.217 376.428 105.477C375.685 104.737 375.314 103.86 375.314 102.839C375.314 103.86 374.943 104.737 374.2 105.477Z" fill="#E9E9E9"/>
<path d="M338.472 557.184C337.729 557.924 336.826 558.318 335.762 558.366C336.826 558.415 337.729 558.809 338.472 559.557C339.215 560.296 339.586 561.181 339.586 562.202C339.586 561.527 339.755 560.908 340.093 560.329C340.439 559.75 340.903 559.283 341.485 558.937C342.076 558.583 342.718 558.399 343.418 558.366C342.346 558.31 341.443 557.924 340.7 557.184C339.958 556.444 339.586 555.568 339.586 554.546C339.586 555.568 339.215 556.444 338.472 557.184Z" fill="#E9E9E9"/>
<path d="M427.738 230.176C426.996 230.916 426.092 231.31 425.029 231.359C426.092 231.407 426.996 231.801 427.738 232.549C428.481 233.289 428.853 234.173 428.853 235.195C428.853 234.519 429.021 233.9 429.359 233.321C429.705 232.742 430.169 232.275 430.752 231.929C431.343 231.576 431.984 231.391 432.685 231.359C431.613 231.302 430.71 230.916 429.967 230.176C429.224 229.436 428.853 228.56 428.853 227.539C428.853 228.56 428.481 229.436 427.738 230.176Z" fill="#E9E9E9"/>
<path d="M223.63 151.413C222.887 152.152 221.984 152.546 220.92 152.595C221.984 152.643 222.887 153.037 223.63 153.785C224.372 154.525 224.744 155.409 224.744 156.431C224.744 155.755 224.913 155.136 225.25 154.557C225.596 153.978 226.061 153.512 226.643 153.166C227.234 152.812 227.875 152.627 228.576 152.595C227.504 152.538 226.601 152.152 225.858 151.413C225.115 150.673 224.744 149.796 224.744 148.775C224.744 149.796 224.372 150.673 223.63 151.413Z" fill="#E9E9E9"/>
<path d="M187.902 603.12C187.159 603.86 186.256 604.254 185.192 604.302C186.256 604.351 187.159 604.745 187.902 605.492C188.645 606.232 189.016 607.117 189.016 608.138C189.016 607.463 189.185 606.844 189.522 606.264C189.869 605.685 190.333 605.219 190.915 604.873C191.506 604.519 192.148 604.334 192.848 604.302C191.776 604.246 190.873 603.86 190.13 603.12C189.387 602.38 189.016 601.504 189.016 600.482C189.016 601.504 188.645 602.38 187.902 603.12Z" fill="#E9E9E9"/>
<path d="M452.805 367.984C452.186 368.724 451.434 369.118 450.547 369.167C451.434 369.215 452.186 369.609 452.805 370.357C453.424 371.097 453.734 371.981 453.734 373.003C453.734 372.327 453.875 371.708 454.156 371.129C454.444 370.55 454.831 370.083 455.317 369.738C455.809 369.384 456.344 369.199 456.927 369.167C456.034 369.11 455.281 368.724 454.662 367.984C454.043 367.245 453.734 366.368 453.734 365.347C453.734 366.368 453.424 367.245 452.805 367.984Z" fill="#E9E9E9"/>
<path d="M574.479 311.839C573.736 312.579 572.833 312.973 571.769 313.021C572.833 313.07 573.736 313.464 574.479 314.212C575.222 314.952 575.593 315.836 575.593 316.858C575.593 316.182 575.762 315.563 576.1 314.984C576.446 314.405 576.91 313.938 577.492 313.592C578.083 313.239 578.725 313.054 579.426 313.021C578.354 312.965 577.45 312.579 576.708 311.839C575.965 311.099 575.593 310.223 575.593 309.201C575.593 310.223 575.222 311.099 574.479 311.839Z" fill="#E9E9E9"/>
<path d="M486.433 192.338C485.69 193.201 484.787 193.661 483.723 193.717C484.787 193.773 485.69 194.233 486.433 195.106C487.176 195.969 487.547 197.001 487.547 198.192C487.547 197.404 487.716 196.682 488.053 196.006C488.399 195.331 488.864 194.787 489.446 194.383C490.037 193.97 490.679 193.755 491.379 193.717C490.307 193.651 489.404 193.201 488.661 192.338C487.918 191.475 487.547 190.452 487.547 189.26C487.547 190.452 487.176 191.475 486.433 192.338Z" fill="#E9E9E9"/>
<path d="M282.328 113.572C281.586 114.436 280.682 114.895 279.619 114.952C280.682 115.008 281.586 115.468 282.328 116.34C283.071 117.203 283.443 118.235 283.443 119.427C283.443 118.639 283.611 117.916 283.949 117.241C284.295 116.565 284.759 116.021 285.342 115.618C285.933 115.205 286.574 114.989 287.275 114.952C286.203 114.886 285.3 114.436 284.557 113.572C283.814 112.709 283.443 111.687 283.443 110.495C283.443 111.687 283.071 112.709 282.328 113.572Z" fill="#E9E9E9"/>
<path d="M246.6 565.279C245.857 566.142 244.954 566.602 243.89 566.658C244.954 566.714 245.857 567.174 246.6 568.047C247.342 568.91 247.714 569.942 247.714 571.134C247.714 570.345 247.883 569.623 248.22 568.948C248.566 568.272 249.031 567.728 249.613 567.324C250.204 566.911 250.845 566.696 251.546 566.658C250.474 566.593 249.571 566.142 248.828 565.279C248.085 564.416 247.714 563.393 247.714 562.202C247.714 563.393 247.342 564.416 246.6 565.279Z" fill="#E9E9E9"/>
<path d="M641.654 184.239C641.035 184.979 640.282 185.373 639.396 185.421C640.282 185.47 641.035 185.864 641.654 186.611C642.273 187.351 642.582 188.236 642.582 189.257C642.582 188.582 642.723 187.963 643.004 187.384C643.293 186.805 643.68 186.338 644.165 185.992C644.657 185.638 645.192 185.453 645.776 185.421C644.883 185.365 644.13 184.979 643.511 184.239C642.892 183.499 642.582 182.623 642.582 181.601C642.582 182.623 642.273 183.499 641.654 184.239Z" fill="#E9E9E9"/>
<path d="M437.549 105.477C436.93 106.217 436.177 106.611 435.291 106.659C436.177 106.707 436.93 107.101 437.549 107.849C438.168 108.589 438.477 109.474 438.477 110.495C438.477 109.82 438.618 109.2 438.899 108.621C439.188 108.042 439.575 107.576 440.06 107.23C440.552 106.876 441.087 106.691 441.671 106.659C440.777 106.603 440.025 106.217 439.406 105.477C438.787 104.737 438.477 103.86 438.477 102.839C438.477 103.86 438.168 104.737 437.549 105.477Z" fill="#E9E9E9"/>
<path d="M401.821 557.184C401.202 557.924 400.449 558.318 399.563 558.366C400.449 558.415 401.202 558.809 401.821 559.557C402.44 560.296 402.749 561.181 402.749 562.202C402.749 561.527 402.89 560.908 403.171 560.329C403.46 559.75 403.846 559.283 404.332 558.937C404.824 558.583 405.359 558.399 405.943 558.366C405.049 558.31 404.297 557.924 403.678 557.184C403.059 556.444 402.749 555.568 402.749 554.546C402.749 555.568 402.44 556.444 401.821 557.184Z" fill="#E9E9E9"/>
<path d="M537.475 289.312C536.732 290.176 535.829 290.635 534.765 290.692C535.829 290.748 536.732 291.208 537.475 292.08C538.218 292.943 538.589 293.975 538.589 295.167C538.589 294.379 538.758 293.656 539.096 292.981C539.442 292.305 539.906 291.761 540.488 291.358C541.079 290.945 541.721 290.729 542.421 290.692C541.349 290.626 540.446 290.176 539.703 289.312C538.961 288.449 538.589 287.426 538.589 286.235C538.589 287.426 538.218 288.449 537.475 289.312Z" fill="#E9E9E9"/>
<path d="M684.215 370.977C683.472 371.841 682.569 372.3 681.505 372.357C682.569 372.413 683.472 372.873 684.215 373.745C684.958 374.608 685.329 375.64 685.329 376.832C685.329 376.044 685.498 375.321 685.836 374.646C686.182 373.97 686.646 373.426 687.228 373.023C687.819 372.61 688.461 372.394 689.161 372.357C688.089 372.291 687.186 371.841 686.443 370.977C685.701 370.114 685.329 369.091 685.329 367.9C685.329 369.091 684.958 370.114 684.215 370.977Z" fill="#E9E9E9"/>
<path d="M552.842 474.516C552.099 475.379 551.196 475.839 550.133 475.895C551.196 475.952 552.099 476.411 552.842 477.284C553.585 478.147 553.956 479.179 553.956 480.371C553.956 479.583 554.125 478.86 554.463 478.185C554.809 477.509 555.273 476.965 555.856 476.562C556.446 476.149 557.088 475.933 557.789 475.895C556.717 475.83 555.813 475.379 555.071 474.516C554.328 473.653 553.956 472.63 553.956 471.439C553.956 472.63 553.585 473.653 552.842 474.516Z" fill="#E9E9E9"/>
<path d="M865.465 352.018C864.722 352.881 863.819 353.341 862.755 353.397C863.819 353.453 864.722 353.913 865.465 354.785C866.208 355.649 866.579 356.681 866.579 357.872C866.579 357.084 866.748 356.362 867.086 355.686C867.432 355.011 867.896 354.466 868.478 354.063C869.069 353.65 869.711 353.434 870.411 353.397C869.339 353.331 868.436 352.881 867.693 352.018C866.951 351.154 866.579 350.132 866.579 348.94C866.579 350.132 866.208 351.154 865.465 352.018Z" fill="#E9E9E9"/>
<path d="M731.428 192.338C730.686 193.201 729.782 193.661 728.719 193.717C729.782 193.773 730.686 194.233 731.428 195.106C732.171 195.969 732.543 197.001 732.543 198.192C732.543 197.404 732.711 196.682 733.049 196.006C733.395 195.331 733.859 194.787 734.442 194.383C735.033 193.97 735.674 193.755 736.375 193.717C735.303 193.651 734.4 193.201 733.657 192.338C732.914 191.475 732.543 190.452 732.543 189.26C732.543 190.452 732.171 191.475 731.428 192.338Z" fill="#E9E9E9"/>
<path d="M504.297 155.33C503.555 156.193 502.651 156.653 501.588 156.709C502.651 156.766 503.555 157.225 504.297 158.098C505.04 158.961 505.412 159.993 505.412 161.185C505.412 160.397 505.581 159.674 505.918 158.999C506.264 158.323 506.729 157.779 507.311 157.375C507.902 156.963 508.543 156.747 509.244 156.709C508.172 156.644 507.269 156.193 506.526 155.33C505.783 154.467 505.412 153.444 505.412 152.253C505.412 153.444 505.04 154.467 504.297 155.33Z" fill="#E9E9E9"/>
<path d="M300.191 76.5677C299.449 77.4309 298.545 77.8906 297.482 77.9469C298.545 78.0032 299.449 78.463 300.191 79.3355C300.934 80.1987 301.306 81.2308 301.306 82.4224C301.306 81.6342 301.474 80.9118 301.812 80.2363C302.158 79.5607 302.622 79.0165 303.205 78.6131C303.796 78.2003 304.437 77.9845 305.138 77.9469C304.066 77.8813 303.163 77.4309 302.42 76.5677C301.677 75.7046 301.306 74.6819 301.306 73.4903C301.306 74.6819 300.934 75.7046 300.191 76.5677Z" fill="#E9E9E9"/>
<path d="M264.464 528.275C263.721 529.138 262.818 529.598 261.754 529.654C262.818 529.71 263.721 530.17 264.464 531.042C265.206 531.906 265.578 532.938 265.578 534.129C265.578 533.341 265.747 532.619 266.084 531.943C266.43 531.268 266.895 530.723 267.477 530.32C268.068 529.907 268.709 529.691 269.41 529.654C268.338 529.588 267.435 529.138 266.692 528.275C265.949 527.411 265.578 526.389 265.578 525.197C265.578 526.389 265.206 527.411 264.464 528.275Z" fill="#E9E9E9"/>
<path d="M659.518 146.398C658.899 147.261 658.146 147.721 657.26 147.777C658.146 147.834 658.899 148.293 659.518 149.166C660.137 150.029 660.446 151.061 660.446 152.253C660.446 151.465 660.587 150.742 660.868 150.067C661.157 149.391 661.543 148.847 662.029 148.443C662.521 148.031 663.056 147.815 663.64 147.777C662.746 147.712 661.994 147.261 661.375 146.398C660.756 145.535 660.446 144.512 660.446 143.321C660.446 144.512 660.137 145.535 659.518 146.398Z" fill="#E9E9E9"/>
<path d="M455.412 67.6357C454.793 68.4989 454.04 68.9586 453.154 69.0149C454.04 69.0712 454.793 69.531 455.412 70.4035C456.031 71.2667 456.341 72.2988 456.341 73.4903C456.341 72.7022 456.481 71.9798 456.763 71.3042C457.051 70.6287 457.438 70.0845 457.923 69.6811C458.416 69.2682 458.95 69.0524 459.534 69.0149C458.641 68.9492 457.888 68.4989 457.269 67.6357C456.65 66.7725 456.341 65.7498 456.341 64.5583C456.341 65.7498 456.031 66.7725 455.412 67.6357Z" fill="#E9E9E9"/>
<path d="M419.685 519.342C419.066 520.205 418.314 520.665 417.427 520.721C418.314 520.778 419.066 521.237 419.685 522.11C420.304 522.973 420.614 524.005 420.614 525.197C420.614 524.409 420.755 523.686 421.036 523.011C421.324 522.335 421.711 521.791 422.197 521.388C422.689 520.975 423.224 520.759 423.807 520.721C422.914 520.656 422.161 520.205 421.542 519.342C420.923 518.479 420.614 517.456 420.614 516.265C420.614 517.456 420.304 518.479 419.685 519.342Z" fill="#E9E9E9"/>
<path d="M298.858 238.27C298.115 239.134 297.212 239.593 296.148 239.65C297.212 239.706 298.115 240.166 298.858 241.038C299.6 241.901 299.972 242.933 299.972 244.125C299.972 243.337 300.141 242.614 300.478 241.939C300.824 241.263 301.289 240.719 301.871 240.316C302.462 239.903 303.104 239.687 303.804 239.65C302.732 239.584 301.829 239.134 301.086 238.27C300.343 237.407 299.972 236.385 299.972 235.193C299.972 236.385 299.6 237.407 298.858 238.27Z" fill="#E9E9E9"/>
<path d="M323.928 376.079C323.309 376.943 322.556 377.402 321.67 377.459C322.556 377.515 323.309 377.975 323.928 378.847C324.547 379.711 324.857 380.743 324.857 381.934C324.857 381.146 324.997 380.424 325.279 379.748C325.567 379.073 325.954 378.528 326.439 378.125C326.932 377.712 327.466 377.496 328.05 377.459C327.157 377.393 326.404 376.943 325.785 376.079C325.166 375.216 324.857 374.194 324.857 373.002C324.857 374.194 324.547 375.216 323.928 376.079Z" fill="#E9E9E9"/>
<path d="M750.569 319.939C749.826 320.802 748.923 321.262 747.859 321.318C748.923 321.374 749.826 321.834 750.569 322.706C751.312 323.57 751.683 324.602 751.683 325.793C751.683 325.005 751.852 324.283 752.19 323.607C752.536 322.932 753 322.387 753.582 321.984C754.173 321.571 754.815 321.355 755.515 321.318C754.443 321.252 753.54 320.802 752.797 319.939C752.055 319.075 751.683 318.053 751.683 316.861C751.683 318.053 751.312 319.075 750.569 319.939Z" fill="#E9E9E9"/>
<path d="M619.196 423.474C618.453 424.337 617.55 424.797 616.486 424.853C617.55 424.909 618.453 425.369 619.196 426.242C619.939 427.105 620.31 428.137 620.31 429.328C620.31 428.54 620.479 427.818 620.817 427.142C621.163 426.467 621.627 425.923 622.209 425.519C622.8 425.106 623.442 424.89 624.142 424.853C623.07 424.787 622.167 424.337 621.424 423.474C620.682 422.611 620.31 421.588 620.31 420.396C620.31 421.588 619.939 422.611 619.196 423.474Z" fill="#E9E9E9"/>
<path d="M931.817 300.976C931.074 301.839 930.171 302.299 929.107 302.355C930.171 302.411 931.074 302.871 931.817 303.743C932.56 304.607 932.931 305.639 932.931 306.83C932.931 306.042 933.1 305.32 933.438 304.644C933.784 303.969 934.248 303.424 934.83 303.021C935.421 302.608 936.063 302.392 936.763 302.355C935.691 302.289 934.788 301.839 934.045 300.976C933.303 300.112 932.931 299.09 932.931 297.898C932.931 299.09 932.56 300.112 931.817 300.976Z" fill="#E9E9E9"/>
</g>
<defs>
<filter id="filter0_d_387_5566" x="0.00012207" y="0.62915" width="1069" height="699.203" filterUnits="userSpaceOnUse" color-interpolation-filters="sRGB">
<feFlood flood-opacity="0" result="BackgroundImageFix"/>
<feColorMatrix in="SourceAlpha" type="matrix" values="0 0 0 0 0 0 0 0 0 0 0 0 0 0 0 0 0 0 127 0" result="hardAlpha"/>
<feOffset/>
<feGaussianBlur stdDeviation="2"/>
<feComposite in2="hardAlpha" operator="out"/>
<feColorMatrix type="matrix" values="0 0 0 0 0.941176 0 0 0 0 0.933333 0 0 0 0 0.858824 0 0 0 0.25 0"/>
<feBlend mode="normal" in2="BackgroundImageFix" result="effect1_dropShadow_387_5566"/>
<feBlend mode="normal" in="SourceGraphic" in2="effect1_dropShadow_387_5566" result="shape"/>
</filter>
</defs>
</svg>
