<svg width="196" height="62" viewBox="0 0 196 62" fill="none" xmlns="http://www.w3.org/2000/svg">
<path d="M38.3513 44.9766L39.8108 43.9096C41.6486 42.8153 42.9459 42.2682 43.7027 42.2682C45.3784 42.2682 47.1892 43.8002 49.1351 46.8643C50.3243 48.7794 50.9189 50.3114 50.9189 51.4604C50.9189 52.6095 50.5405 53.567 49.7838 54.333C49.0811 55.0991 48.2432 55.783 47.2703 56.3849C46.2973 56.9868 45.3513 57.5613 44.4324 58.1084C43.5676 58.6556 41.7568 59.3669 39 60.2424C36.2432 61.1178 33.5676 61.5556 30.973 61.5556C28.4324 61.5556 25.8378 61.2273 23.1892 60.5707C20.5946 59.8594 17.8919 58.7103 15.0811 57.1236C12.3243 55.4821 9.83784 53.5123 7.62162 51.2142C5.40541 48.8614 3.56757 45.8794 2.10811 42.2682C0.702703 38.6022 0 34.6353 0 30.3674C0 26.0996 0.702703 22.2421 2.10811 18.795C3.51351 15.2931 5.2973 12.4205 7.45946 10.1772C9.67568 7.87911 12.1892 5.96405 15 4.432C20.2973 1.47733 25.6216 0 30.973 0C33.5135 0 36.0811 0.41037 38.6757 1.23111C41.3243 1.99713 43.3243 2.79052 44.6757 3.61126L46.6216 4.76029C47.5946 5.36217 48.3514 5.85462 48.8919 6.23763C50.2973 7.38667 51 8.69985 51 10.1772C51 11.5998 50.4324 13.1045 49.2973 14.6913C47.1892 17.6459 45.2973 19.1233 43.6216 19.1233C42.6486 19.1233 41.2703 18.5214 39.4865 17.3176C37.2162 15.4573 34.1892 14.5271 30.4054 14.5271C26.8919 14.5271 23.4324 15.7582 20.027 18.2204C18.4054 19.4242 17.0541 21.1204 15.973 23.309C14.8919 25.4977 14.3514 27.9873 14.3514 30.7778C14.3514 33.5136 14.8919 35.9758 15.973 38.1644C17.0541 40.3531 18.4324 42.0766 20.1081 43.3351C23.4054 45.7426 26.8378 46.9464 30.4054 46.9464C32.0811 46.9464 33.6486 46.7275 35.1081 46.2898C36.6216 45.8521 37.7027 45.4143 38.3513 44.9766Z" fill="white"/>
<path d="M38.25 30.7778C38.25 35.6344 34.4444 39.5714 29.75 39.5714C25.0556 39.5714 21.25 35.6344 21.25 30.7778C21.25 25.9212 25.0556 21.9841 29.75 21.9841C34.4444 21.9841 38.25 25.9212 38.25 30.7778Z" fill="white"/>
<path d="M38.25 30.778C38.25 35.6346 34.4444 39.5717 29.75 39.5717C25.0556 39.5717 21.25 35.6346 21.25 30.778C21.25 25.9214 25.0556 21.9844 29.75 21.9844C34.4444 21.9844 38.25 25.9214 38.25 30.778Z" fill="white"/>
<path d="M79.4148 27.7216H76.7557C76.6534 27.1534 76.4631 26.6534 76.1847 26.2216C75.9063 25.7898 75.5653 25.4233 75.1619 25.1222C74.7585 24.821 74.3068 24.5937 73.8068 24.4403C73.3125 24.2869 72.7869 24.2102 72.2301 24.2102C71.2244 24.2102 70.3239 24.4631 69.5284 24.9688C68.7386 25.4744 68.1136 26.2159 67.6534 27.1932C67.1989 28.1705 66.9716 29.3636 66.9716 30.7727C66.9716 32.1932 67.1989 33.392 67.6534 34.3693C68.1136 35.3466 68.7415 36.0852 69.5369 36.5852C70.3324 37.0852 71.2273 37.3352 72.2216 37.3352C72.7727 37.3352 73.2955 37.2614 73.7898 37.1136C74.2898 36.9602 74.7415 36.7358 75.1449 36.4403C75.5483 36.1449 75.8892 35.7841 76.1676 35.358C76.4517 34.9261 76.6477 34.4318 76.7557 33.875L79.4148 33.8835C79.2727 34.7415 78.9972 35.5312 78.5881 36.2528C78.1847 36.9688 77.6648 37.5881 77.0284 38.1108C76.3977 38.6278 75.6761 39.0284 74.8636 39.3125C74.0511 39.5966 73.1648 39.7386 72.2045 39.7386C70.6932 39.7386 69.3466 39.3807 68.1648 38.6648C66.983 37.9432 66.0511 36.9119 65.3693 35.571C64.6932 34.2301 64.3551 32.6307 64.3551 30.7727C64.3551 28.9091 64.696 27.3097 65.3778 25.9744C66.0597 24.6335 66.9915 23.6051 68.1733 22.8892C69.3551 22.1676 70.6989 21.8068 72.2045 21.8068C73.1307 21.8068 73.9943 21.9403 74.7955 22.2074C75.6023 22.4687 76.3267 22.8551 76.9688 23.3665C77.6108 23.8722 78.142 24.4915 78.5625 25.2244C78.983 25.9517 79.267 26.7841 79.4148 27.7216ZM97.504 30.7727C97.504 32.6364 97.1631 34.2386 96.4813 35.5795C95.7994 36.9148 94.8648 37.9432 93.6773 38.6648C92.4955 39.3807 91.1517 39.7386 89.646 39.7386C88.1347 39.7386 86.7852 39.3807 85.5977 38.6648C84.4159 37.9432 83.4841 36.9119 82.8023 35.571C82.1205 34.2301 81.7796 32.6307 81.7796 30.7727C81.7796 28.9091 82.1205 27.3097 82.8023 25.9744C83.4841 24.6335 84.4159 23.6051 85.5977 22.8892C86.7852 22.1676 88.1347 21.8068 89.646 21.8068C91.1517 21.8068 92.4955 22.1676 93.6773 22.8892C94.8648 23.6051 95.7994 24.6335 96.4813 25.9744C97.1631 27.3097 97.504 28.9091 97.504 30.7727ZM94.896 30.7727C94.896 29.3523 94.6659 28.1562 94.2057 27.1847C93.7511 26.2074 93.1261 25.4688 92.3307 24.9688C91.5409 24.4631 90.646 24.2102 89.646 24.2102C88.6403 24.2102 87.7426 24.4631 86.9528 24.9688C86.1631 25.4688 85.5381 26.2074 85.0778 27.1847C84.6233 28.1562 84.396 29.3523 84.396 30.7727C84.396 32.1932 84.6233 33.392 85.0778 34.3693C85.5381 35.3409 86.1631 36.0795 86.9528 36.5852C87.7426 37.0852 88.6403 37.3352 89.646 37.3352C90.646 37.3352 91.5409 37.0852 92.3307 36.5852C93.1261 36.0795 93.7511 35.3409 94.2057 34.3693C94.6659 33.392 94.896 32.1932 94.896 30.7727ZM114.651 22.0455V39.5H112.231L103.359 26.6989H103.197V39.5H100.563V22.0455H103.001L111.882 34.8636H112.043V22.0455H114.651ZM132.357 22.0455V39.5H129.937L121.065 26.6989H120.903V39.5H118.269V22.0455H120.707L129.587 34.8636H129.749V22.0455H132.357ZM135.975 39.5V22.0455H146.918V24.3125H138.608V29.6307H146.347V31.8892H138.608V37.233H147.02V39.5H135.975ZM164.709 27.7216H162.05C161.947 27.1534 161.757 26.6534 161.479 26.2216C161.2 25.7898 160.859 25.4233 160.456 25.1222C160.053 24.821 159.601 24.5937 159.101 24.4403C158.607 24.2869 158.081 24.2102 157.524 24.2102C156.518 24.2102 155.618 24.4631 154.822 24.9688C154.033 25.4744 153.408 26.2159 152.947 27.1932C152.493 28.1705 152.266 29.3636 152.266 30.7727C152.266 32.1932 152.493 33.392 152.947 34.3693C153.408 35.3466 154.036 36.0852 154.831 36.5852C155.626 37.0852 156.521 37.3352 157.516 37.3352C158.067 37.3352 158.59 37.2614 159.084 37.1136C159.584 36.9602 160.036 36.7358 160.439 36.4403C160.842 36.1449 161.183 35.7841 161.462 35.358C161.746 34.9261 161.942 34.4318 162.05 33.875L164.709 33.8835C164.567 34.7415 164.291 35.5312 163.882 36.2528C163.479 36.9688 162.959 37.5881 162.322 38.1108C161.692 38.6278 160.97 39.0284 160.158 39.3125C159.345 39.5966 158.459 39.7386 157.499 39.7386C155.987 39.7386 154.641 39.3807 153.459 38.6648C152.277 37.9432 151.345 36.9119 150.663 35.571C149.987 34.2301 149.649 32.6307 149.649 30.7727C149.649 28.9091 149.99 27.3097 150.672 25.9744C151.354 24.6335 152.286 23.6051 153.467 22.8892C154.649 22.1676 155.993 21.8068 157.499 21.8068C158.425 21.8068 159.288 21.9403 160.09 22.2074C160.896 22.4687 161.621 22.8551 162.263 23.3665C162.905 23.8722 163.436 24.4915 163.857 25.2244C164.277 25.9517 164.561 26.7841 164.709 27.7216ZM166.775 24.3125V22.0455H180.284V24.3125H174.838V39.5H172.213V24.3125H166.775ZM182.457 39.5H179.661L185.943 22.0455H188.985L195.267 39.5H192.471L187.536 25.2159H187.4L182.457 39.5ZM182.926 32.6648H191.994V34.8807H182.926V32.6648Z" fill="white"/>
</svg>
