<svg width="139" height="32" viewBox="0 0 139 32" fill="none" xmlns="http://www.w3.org/2000/svg">
<path d="M20.3037 23.3813L21.0763 22.8267C22.0493 22.2578 22.7361 21.9733 23.1367 21.9733C24.0238 21.9733 24.9825 22.7698 26.0127 24.3627C26.6423 25.3582 26.9571 26.1547 26.9571 26.752C26.9571 27.3493 26.7568 27.8471 26.3561 28.2453C25.9841 28.6436 25.5405 28.9991 25.0254 29.312C24.5103 29.6249 24.0095 29.9236 23.5231 30.208C23.0652 30.4924 22.1065 30.8622 20.6471 31.3173C19.1876 31.7724 17.7711 32 16.3975 32C15.0525 32 13.6789 31.8293 12.2766 31.488C10.903 31.1182 9.47218 30.5209 7.9841 29.696C6.52464 28.8427 5.20827 27.8187 4.03498 26.624C2.86169 25.4009 1.88871 23.8507 1.11606 21.9733C0.372019 20.0676 0 18.0053 0 15.7867C0 13.568 0.372019 11.5627 1.11606 9.77067C1.8601 7.95022 2.80445 6.45689 3.94913 5.29066C5.12242 4.096 6.4531 3.10044 7.94118 2.304C10.7456 0.767999 13.5644 0 16.3975 0C17.7424 0 19.1017 0.213333 20.4754 0.639999C21.8776 1.03822 22.9364 1.45067 23.6518 1.87733L24.682 2.47467C25.1971 2.78756 25.5978 3.04356 25.8839 3.24267C26.628 3.84 27 4.52267 27 5.29066C27 6.03022 26.6995 6.81244 26.0986 7.63733C24.9825 9.17333 23.9809 9.94133 23.0938 9.94133C22.5787 9.94133 21.849 9.62844 20.9046 9.00267C19.7027 8.03555 18.1002 7.552 16.097 7.552C14.2369 7.552 12.4054 8.192 10.6025 9.472C9.74404 10.0978 9.02862 10.9796 8.45628 12.1173C7.88394 13.2551 7.59777 14.5493 7.59777 16C7.59777 17.4222 7.88394 18.7022 8.45628 19.84C9.02862 20.9778 9.75835 21.8738 10.6455 22.528C12.3911 23.7796 14.2083 24.4053 16.097 24.4053C16.9841 24.4053 17.814 24.2916 18.5866 24.064C19.3879 23.8364 19.9603 23.6089 20.3037 23.3813Z" fill="#AED9E0"/>
<path d="M20.25 16C20.25 18.5247 18.2353 20.5714 15.75 20.5714C13.2647 20.5714 11.25 18.5247 11.25 16C11.25 13.4753 13.2647 11.4286 15.75 11.4286C18.2353 11.4286 20.25 13.4753 20.25 16Z" fill="#AED9E0"/>
<path d="M20.25 16C20.25 18.5247 18.2353 20.5714 15.75 20.5714C13.2647 20.5714 11.25 18.5247 11.25 16C11.25 13.4753 13.2647 11.4286 15.75 11.4286C18.2353 11.4286 20.25 13.4753 20.25 16Z" fill="#B8F2E6"/>
<path d="M51.3111 14.1662H49.3168C49.2401 13.7401 49.0973 13.3651 48.8885 13.0412C48.6797 12.7173 48.424 12.4425 48.1214 12.2166C47.8189 11.9908 47.4801 11.8203 47.1051 11.7053C46.7344 11.5902 46.3402 11.5327 45.9226 11.5327C45.1683 11.5327 44.4929 11.7223 43.8963 12.1016C43.304 12.4808 42.8352 13.0369 42.4901 13.7699C42.1491 14.5028 41.9787 15.3977 41.9787 16.4545C41.9787 17.5199 42.1491 18.419 42.4901 19.152C42.8352 19.8849 43.3061 20.4389 43.9027 20.8139C44.4993 21.1889 45.1705 21.3764 45.9162 21.3764C46.3295 21.3764 46.7216 21.321 47.0923 21.2102C47.4673 21.0952 47.8061 20.9268 48.1087 20.7053C48.4112 20.4837 48.6669 20.2131 48.8757 19.8935C49.0888 19.5696 49.2358 19.1989 49.3168 18.7812L51.3111 18.7876C51.2045 19.4311 50.9979 20.0234 50.6911 20.5646C50.3885 21.1016 49.9986 21.5661 49.5213 21.9581C49.0483 22.3459 48.5071 22.6463 47.8977 22.8594C47.2884 23.0724 46.6236 23.179 45.9034 23.179C44.7699 23.179 43.7599 22.9105 42.8736 22.3736C41.9872 21.8324 41.2884 21.0589 40.777 20.0533C40.2699 19.0476 40.0163 17.848 40.0163 16.4545C40.0163 15.0568 40.272 13.8572 40.7834 12.8558C41.2947 11.8501 41.9936 11.0788 42.88 10.5419C43.7663 10.0007 44.7741 9.73011 45.9034 9.73011C46.598 9.73011 47.2457 9.83026 47.8466 10.0305C48.4517 10.2266 48.995 10.5163 49.4766 10.8999C49.9581 11.2791 50.3565 11.7436 50.6719 12.2933C50.9872 12.8388 51.2003 13.4631 51.3111 14.1662ZM64.822 16.4545C64.822 17.8523 64.5663 19.054 64.0549 20.0597C63.5436 21.0611 62.8426 21.8324 61.952 22.3736C61.0656 22.9105 60.0578 23.179 58.9285 23.179C57.795 23.179 56.7829 22.9105 55.8923 22.3736C55.0059 21.8324 54.3071 21.0589 53.7957 20.0533C53.2843 19.0476 53.0287 17.848 53.0287 16.4545C53.0287 15.0568 53.2843 13.8572 53.7957 12.8558C54.3071 11.8501 55.0059 11.0788 55.8923 10.5419C56.7829 10.0007 57.795 9.73011 58.9285 9.73011C60.0578 9.73011 61.0656 10.0007 61.952 10.5419C62.8426 11.0788 63.5436 11.8501 64.0549 12.8558C64.5663 13.8572 64.822 15.0568 64.822 16.4545ZM62.866 16.4545C62.866 15.3892 62.6934 14.4922 62.3483 13.7635C62.0074 13.0305 61.5386 12.4766 60.942 12.1016C60.3497 11.7223 59.6785 11.5327 58.9285 11.5327C58.1743 11.5327 57.501 11.7223 56.9086 12.1016C56.3163 12.4766 55.8476 13.0305 55.5024 13.7635C55.1615 14.4922 54.991 15.3892 54.991 16.4545C54.991 17.5199 55.1615 18.419 55.5024 19.152C55.8476 19.8807 56.3163 20.4347 56.9086 20.8139C57.501 21.1889 58.1743 21.3764 58.9285 21.3764C59.6785 21.3764 60.3497 21.1889 60.942 20.8139C61.5386 20.4347 62.0074 19.8807 62.3483 19.152C62.6934 18.419 62.866 17.5199 62.866 16.4545ZM77.6266 9.90909V23H75.8112L69.1571 13.3991H69.0357V23H67.0605V9.90909H68.8886L75.5492 19.5227H75.6706V9.90909H77.6266ZM90.8498 9.90909V23H89.0345L82.3804 13.3991H82.2589V23H80.2838V9.90909H82.1119L88.7724 19.5227H88.8939V9.90909H90.8498ZM93.5071 23V9.90909H101.714V11.6094H95.4822V15.598H101.286V17.2919H95.4822V21.2997H101.791V23H93.5071ZM115.002 14.1662H113.007C112.931 13.7401 112.788 13.3651 112.579 13.0412C112.37 12.7173 112.115 12.4425 111.812 12.2166C111.509 11.9908 111.171 11.8203 110.796 11.7053C110.425 11.5902 110.031 11.5327 109.613 11.5327C108.859 11.5327 108.183 11.7223 107.587 12.1016C106.995 12.4808 106.526 13.0369 106.181 13.7699C105.84 14.5028 105.669 15.3977 105.669 16.4545C105.669 17.5199 105.84 18.419 106.181 19.152C106.526 19.8849 106.997 20.4389 107.593 20.8139C108.19 21.1889 108.861 21.3764 109.607 21.3764C110.02 21.3764 110.412 21.321 110.783 21.2102C111.158 21.0952 111.497 20.9268 111.799 20.7053C112.102 20.4837 112.357 20.2131 112.566 19.8935C112.779 19.5696 112.926 19.1989 113.007 18.7812L115.002 18.7876C114.895 19.4311 114.688 20.0234 114.382 20.5646C114.079 21.1016 113.689 21.5661 113.212 21.9581C112.739 22.3459 112.198 22.6463 111.588 22.8594C110.979 23.0724 110.314 23.179 109.594 23.179C108.46 23.179 107.45 22.9105 106.564 22.3736C105.678 21.8324 104.979 21.0589 104.468 20.0533C103.96 19.0476 103.707 17.848 103.707 16.4545C103.707 15.0568 103.963 13.8572 104.474 12.8558C104.985 11.8501 105.684 11.0788 106.571 10.5419C107.457 10.0007 108.465 9.73011 109.594 9.73011C110.289 9.73011 110.936 9.83026 111.537 10.0305C112.142 10.2266 112.686 10.5163 113.167 10.8999C113.649 11.2791 114.047 11.7436 114.362 12.2933C114.678 12.8388 114.891 13.4631 115.002 14.1662ZM116.495 11.6094V9.90909H126.627V11.6094H122.542V23H120.574V11.6094H116.495ZM128.201 23H126.104L130.815 9.90909H133.097L137.808 23H135.711L132.01 12.2869H131.908L128.201 23ZM128.552 17.8736H135.353V19.5355H128.552V17.8736Z" fill="#2D3032"/>
</svg>
