<svg width="138" height="32" viewBox="0 0 138 32" fill="none" xmlns="http://www.w3.org/2000/svg">
<path d="M20.3037 23.3813L21.0763 22.8267C22.0493 22.2578 22.7361 21.9733 23.1367 21.9733C24.0238 21.9733 24.9825 22.7698 26.0127 24.3627C26.6423 25.3582 26.9571 26.1547 26.9571 26.752C26.9571 27.3493 26.7568 27.8471 26.3561 28.2453C25.9841 28.6436 25.5405 28.9991 25.0254 29.312C24.5103 29.6249 24.0095 29.9236 23.5231 30.208C23.0652 30.4924 22.1065 30.8622 20.6471 31.3173C19.1876 31.7724 17.7711 32 16.3975 32C15.0525 32 13.6789 31.8293 12.2766 31.488C10.903 31.1182 9.47218 30.5209 7.9841 29.696C6.52464 28.8427 5.20827 27.8187 4.03498 26.624C2.86169 25.4009 1.88871 23.8507 1.11606 21.9733C0.372019 20.0676 0 18.0053 0 15.7867C0 13.568 0.372019 11.5627 1.11606 9.77067C1.8601 7.95022 2.80445 6.45689 3.94913 5.29066C5.12242 4.096 6.4531 3.10044 7.94118 2.304C10.7456 0.767999 13.5644 0 16.3975 0C17.7424 0 19.1017 0.213333 20.4754 0.639999C21.8776 1.03822 22.9364 1.45067 23.6518 1.87733L24.682 2.47467C25.1971 2.78756 25.5978 3.04356 25.8839 3.24267C26.628 3.84 27 4.52267 27 5.29066C27 6.03022 26.6995 6.81244 26.0986 7.63733C24.9825 9.17333 23.9809 9.94133 23.0938 9.94133C22.5787 9.94133 21.849 9.62844 20.9046 9.00267C19.7027 8.03555 18.1002 7.552 16.097 7.552C14.2369 7.552 12.4054 8.192 10.6025 9.472C9.74404 10.0978 9.02862 10.9796 8.45628 12.1173C7.88394 13.2551 7.59777 14.5493 7.59777 16C7.59777 17.4222 7.88394 18.7022 8.45628 19.84C9.02862 20.9778 9.75835 21.8738 10.6455 22.528C12.3911 23.7796 14.2083 24.4053 16.097 24.4053C16.9841 24.4053 17.814 24.2916 18.5866 24.064C19.3879 23.8364 19.9603 23.6089 20.3037 23.3813Z" fill="#48A6A7"/>
<path d="M20.25 16C20.25 18.5247 18.2353 20.5714 15.75 20.5714C13.2647 20.5714 11.25 18.5247 11.25 16C11.25 13.4753 13.2647 11.4286 15.75 11.4286C18.2353 11.4286 20.25 13.4753 20.25 16Z" fill="#48A6A7"/>
<path d="M20.25 16C20.25 18.5247 18.2353 20.5714 15.75 20.5714C13.2647 20.5714 11.25 18.5247 11.25 16C11.25 13.4753 13.2647 11.4286 15.75 11.4286C18.2353 11.4286 20.25 13.4753 20.25 16Z" fill="#48A6A7"/>
<path d="M39.666 16.218C39.666 14.994 39.948 13.896 40.512 12.924C41.088 11.952 41.862 11.196 42.834 10.656C43.818 10.104 44.892 9.828 46.056 9.828C47.388 9.828 48.57 10.158 49.602 10.818C50.646 11.466 51.402 12.39 51.87 13.59H49.404C49.08 12.93 48.63 12.438 48.054 12.114C47.478 11.79 46.812 11.628 46.056 11.628C45.228 11.628 44.49 11.814 43.842 12.186C43.194 12.558 42.684 13.092 42.312 13.788C41.952 14.484 41.772 15.294 41.772 16.218C41.772 17.142 41.952 17.952 42.312 18.648C42.684 19.344 43.194 19.884 43.842 20.268C44.49 20.64 45.228 20.826 46.056 20.826C46.812 20.826 47.478 20.664 48.054 20.34C48.63 20.016 49.08 19.524 49.404 18.864H51.87C51.402 20.064 50.646 20.988 49.602 21.636C48.57 22.284 47.388 22.608 46.056 22.608C44.88 22.608 43.806 22.338 42.834 21.798C41.862 21.246 41.088 20.484 40.512 19.512C39.948 18.54 39.666 17.442 39.666 16.218ZM59.7539 22.626C58.5899 22.626 57.5159 22.356 56.5319 21.816C55.5599 21.264 54.7859 20.502 54.2099 19.53C53.6459 18.546 53.3639 17.442 53.3639 16.218C53.3639 14.994 53.6459 13.896 54.2099 12.924C54.7859 11.952 55.5599 11.196 56.5319 10.656C57.5159 10.104 58.5899 9.828 59.7539 9.828C60.9299 9.828 62.0039 10.104 62.9759 10.656C63.9599 11.196 64.7339 11.952 65.2979 12.924C65.8619 13.896 66.1439 14.994 66.1439 16.218C66.1439 17.442 65.8619 18.546 65.2979 19.53C64.7339 20.502 63.9599 21.264 62.9759 21.816C62.0039 22.356 60.9299 22.626 59.7539 22.626ZM59.7539 20.844C60.5819 20.844 61.3199 20.658 61.9679 20.286C62.6159 19.902 63.1199 19.362 63.4799 18.666C63.8519 17.958 64.0379 17.142 64.0379 16.218C64.0379 15.294 63.8519 14.484 63.4799 13.788C63.1199 13.092 62.6159 12.558 61.9679 12.186C61.3199 11.814 60.5819 11.628 59.7539 11.628C58.9259 11.628 58.1879 11.814 57.5399 12.186C56.8919 12.558 56.3819 13.092 56.0099 13.788C55.6499 14.484 55.4699 15.294 55.4699 16.218C55.4699 17.142 55.6499 17.958 56.0099 18.666C56.3819 19.362 56.8919 19.902 57.5399 20.286C58.1879 20.658 58.9259 20.844 59.7539 20.844ZM78.2171 22.5H76.1651L69.9911 13.158V22.5H67.9391V9.972H69.9911L76.1651 19.296V9.972H78.2171V22.5ZM90.9658 22.5H88.9138L82.7398 13.158V22.5H80.6878V9.972H82.7398L88.9138 19.296V9.972H90.9658V22.5ZM95.4884 11.646V15.318H99.8084V16.992H95.4884V20.826H100.348V22.5H93.4364V9.972H100.348V11.646H95.4884ZM101.968 16.218C101.968 14.994 102.25 13.896 102.814 12.924C103.39 11.952 104.164 11.196 105.136 10.656C106.12 10.104 107.194 9.828 108.358 9.828C109.69 9.828 110.872 10.158 111.904 10.818C112.948 11.466 113.704 12.39 114.172 13.59H111.706C111.382 12.93 110.932 12.438 110.356 12.114C109.78 11.79 109.114 11.628 108.358 11.628C107.53 11.628 106.792 11.814 106.144 12.186C105.496 12.558 104.986 13.092 104.614 13.788C104.254 14.484 104.074 15.294 104.074 16.218C104.074 17.142 104.254 17.952 104.614 18.648C104.986 19.344 105.496 19.884 106.144 20.268C106.792 20.64 107.53 20.826 108.358 20.826C109.114 20.826 109.78 20.664 110.356 20.34C110.932 20.016 111.382 19.524 111.706 18.864H114.172C113.704 20.064 112.948 20.988 111.904 21.636C110.872 22.284 109.69 22.608 108.358 22.608C107.182 22.608 106.108 22.338 105.136 21.798C104.164 21.246 103.39 20.484 102.814 19.512C102.25 18.54 101.968 17.442 101.968 16.218ZM124.432 9.99V11.664H121.102V22.5H119.05V11.664H115.702V9.99H124.432ZM133.828 19.944H128.59L127.69 22.5H125.548L130.03 9.972H132.406L136.888 22.5H134.728L133.828 19.944ZM133.252 18.27L131.218 12.456L129.166 18.27H133.252Z" fill="white"/>
</svg>
