<svg width="201" height="71" viewBox="0 0 201 71" fill="none" xmlns="http://www.w3.org/2000/svg">
<path fill-rule="evenodd" clip-rule="evenodd" d="M100.994 60.9033C123.522 65.8105 148.666 67.8991 172.271 62.4591C180.86 60.4803 188.551 57.1748 196.458 53.8425C197.012 53.6095 197.26 53.088 197.009 52.6793C196.755 52.271 196.099 52.1299 195.542 52.3656C187.788 55.6327 180.252 58.8884 171.829 60.8288C148.559 66.1917 123.776 64.0755 101.585 59.2171L101.688 58.9398C102.817 55.9304 101.119 52.1281 97.753 48.417C92.9299 43.0969 84.7805 37.9035 77.8407 35.465C74.7219 34.3697 71.8241 33.8349 69.5445 34.0183C67.7671 34.1604 66.3199 34.7221 65.3008 35.7177C63.1307 37.8402 63.7249 40.7035 66.2696 43.6961C71.5891 49.9564 85.2188 57.0321 92.2515 58.8323C94.4479 59.3938 96.6764 59.9339 98.9323 60.4443C98.7521 60.9764 98.5727 61.4971 98.3693 61.9995C97.7844 63.43 96.986 64.7314 95.2006 65.8418C92.4158 67.5701 88.8608 68.4111 85.1307 68.7488C79.3092 69.2727 73.0603 68.5558 68.4215 67.812C42.5872 63.668 27.9492 51.1607 18.8923 37.6107C9.7489 23.9249 6.26518 9.1691 2.78166 0.71678C2.60364 0.281658 1.98373 0.0777028 1.39872 0.257482C0.813702 0.437261 0.484718 0.93699 0.665627 1.3716C4.17073 9.87871 7.69739 24.7262 16.9044 38.5021C26.1979 52.4138 41.2535 65.2284 67.7718 69.4838C72.6039 70.2589 79.1141 70.9883 85.1761 70.4423C89.3725 70.0629 93.354 69.0724 96.4878 67.1271C99.2992 65.3806 100.167 63.2758 100.994 60.9033ZM99.513 58.7531L99.5662 58.6152C100.553 55.9847 98.8405 52.7259 95.8969 49.4813C91.2624 44.369 83.4368 39.3732 76.764 37.0296C74.477 36.2248 72.3378 35.7344 70.5244 35.6891C69.0284 35.6531 67.7817 35.9158 66.9917 36.6906C66.2415 37.4201 66.0441 38.2775 66.2223 39.2039C66.4291 40.292 67.1296 41.4598 68.1562 42.6693C73.2686 48.6844 86.3691 55.4793 93.1271 57.2085C95.2267 57.7443 97.3557 58.2613 99.513 58.7531Z" fill="#4F5662"/>
<path fill-rule="evenodd" clip-rule="evenodd" d="M198.791 50.7818C198.758 51.1548 198.516 51.6595 198.248 52.2003C197.612 53.489 196.632 54.9147 196.205 55.5986C195.931 56.039 196.155 56.5314 196.7 56.7012C197.248 56.8704 197.913 56.6519 198.187 56.2114C198.71 55.3733 200.01 53.4718 200.625 51.9773C200.955 51.1755 201.074 50.4671 200.938 49.9976C200.707 49.1976 199.765 48.8386 198.08 49.1672C196.087 49.557 192.508 50.9701 189.238 50.6069C188.645 50.5401 188.044 50.8669 187.903 51.3313C187.759 51.7985 188.124 52.2299 188.72 52.2962C191.837 52.6412 195.219 51.6143 197.514 51.0293C197.951 50.9186 198.477 50.8302 198.791 50.7818Z" fill="#4F5662"/>
</svg>
