<svg width="438" height="438" viewBox="0 0 438 438" fill="none" xmlns="http://www.w3.org/2000/svg">
<path d="M57.1021 197.825H170.906" stroke="#A0ABAD" stroke-width="0.82268" stroke-linecap="round" stroke-linejoin="round" stroke-dasharray="2.19 2.74"/>
<path d="M81.5962 353.17H160.731V332.624H216.126V266.739" stroke="#A0ABAD" stroke-width="1.09691" stroke-linecap="round" stroke-linejoin="round" stroke-dasharray="2.19 2.74"/>
<path d="M320.887 266.739L320.887 347.77" stroke="#A0ABAD" stroke-width="1.09691" stroke-dasharray="2.19 2.74"/>
<path d="M332.945 33.491H295.262V135.726" stroke="#A0ABAD" stroke-width="1.09691" stroke-linecap="round" stroke-linejoin="round" stroke-dasharray="2.19 2.74"/>
<path d="M140.759 53.9377H190.132V79.94H268.883V133.833" stroke="#A0ABAD" stroke-width="1.09691" stroke-linecap="round" stroke-linejoin="round" stroke-dasharray="2.19 2.74"/>
<g filter="url(#filter0_d_355_849)">
<rect x="162.291" y="116.891" width="237.537" height="181.035" rx="8" fill="white"/>
</g>
<rect x="181.294" y="193.116" width="95.9648" height="51.4521" rx="3.29072" fill="#B8F2E6"/>
<rect x="181.294" y="147.381" width="75.0616" height="5.7169" rx="2.85845" fill="#B8F2E6"/>
<rect x="181.294" y="162.626" width="115.918" height="5.7169" rx="2.85845" fill="#FAF3DD"/>
<rect x="285.81" y="193.116" width="95.0147" height="5.7169" rx="2.85845" fill="#5E6472"/>
<rect x="285.81" y="208.361" width="95.0147" height="5.7169" rx="2.85845" fill="#5E6472"/>
<rect x="285.81" y="223.606" width="95.0147" height="5.7169" rx="2.85845" fill="#5E6472"/>
<rect x="285.81" y="238.851" width="95.0147" height="5.7169" rx="2.85845" fill="#5E6472"/>
<rect x="181.294" y="254.096" width="199.531" height="5.71691" rx="2.85846" fill="#5E6472"/>
<rect x="181.294" y="269.342" width="199.531" height="5.7169" rx="2.85845" fill="#5E6472"/>
<g filter="url(#filter1_d_355_849)">
<rect x="93.2786" y="32.7334" width="45.2202" height="45.4379" rx="3.29072" fill="white"/>
</g>
<g clip-path="url(#clip0_355_849)">
<path d="M124.367 44.093H107.41C105.85 44.093 104.583 45.3662 104.583 46.9329V63.9721C104.583 65.5378 105.85 66.812 107.41 66.812H124.367C125.925 66.812 127.193 65.5378 127.193 63.9721V46.9329C127.193 45.3662 125.925 44.093 124.367 44.093Z" fill="#3B5999"/>
<path d="M120.128 55.4525V52.6126C120.128 51.8288 120.761 51.9026 121.541 51.9026H122.954V48.3528H120.128C117.786 48.3528 115.889 50.2593 115.889 52.6126V55.4525H113.062V59.0023H115.889V66.8119H120.128V59.0023H122.248L123.661 55.4525H120.128Z" fill="white"/>
</g>
<g filter="url(#filter2_d_355_849)">
<rect x="332.946" y="8.5" width="52.7569" height="53.0109" rx="3.29072" fill="white"/>
</g>
<path d="M350.682 31.8197V39.398C350.682 40.0994 350.961 40.772 351.457 41.2679C351.953 41.7638 352.625 42.0424 353.326 42.0424H364.959C365.66 42.0424 366.333 41.7638 366.829 41.2679C367.324 40.772 367.603 40.0994 367.603 39.398V31.8176L359.382 36.0288C359.308 36.0671 359.225 36.087 359.141 36.087C359.057 36.087 358.975 36.0671 358.9 36.0288L350.682 31.8197Z" fill="#367AF2"/>
<path d="M350.682 31.8197V39.398C350.682 40.0994 350.961 40.772 351.457 41.2679C351.953 41.7638 352.625 42.0424 353.326 42.0424H364.959C365.66 42.0424 366.333 41.7638 366.829 41.2679C367.324 40.772 367.603 40.0994 367.603 39.398V31.8176L359.382 36.0288C359.308 36.0671 359.225 36.087 359.141 36.087C359.057 36.087 358.975 36.0671 358.9 36.0288L350.682 31.8197Z" fill="url(#paint0_linear_355_849)"/>
<path d="M350.682 31.8197V39.398C350.682 40.0994 350.961 40.772 351.457 41.2679C351.953 41.7638 352.625 42.0424 353.326 42.0424H364.959C365.66 42.0424 366.333 41.7638 366.829 41.2679C367.324 40.772 367.603 40.0994 367.603 39.398V31.8176L359.382 36.0288C359.308 36.0671 359.225 36.087 359.141 36.087C359.057 36.087 358.975 36.0671 358.9 36.0288L350.682 31.8197Z" fill="url(#paint1_linear_355_849)"/>
<path d="M350.682 31.8197V39.398C350.682 40.0994 350.961 40.772 351.457 41.2679C351.953 41.7638 352.625 42.0424 353.326 42.0424H364.959C365.66 42.0424 366.333 41.7638 366.829 41.2679C367.324 40.772 367.603 40.0994 367.603 39.398V31.8176L359.382 36.0288C359.308 36.0671 359.225 36.087 359.141 36.087C359.057 36.087 358.975 36.0671 358.9 36.0288L350.682 31.8197Z" fill="url(#paint2_linear_355_849)" fill-opacity="0.75"/>
<path d="M350.682 31.8197V39.398C350.682 40.0994 350.961 40.772 351.457 41.2679C351.953 41.7638 352.625 42.0424 353.326 42.0424H364.959C365.66 42.0424 366.333 41.7638 366.829 41.2679C367.324 40.772 367.603 40.0994 367.603 39.398V31.8176L359.382 36.0288C359.308 36.0671 359.225 36.087 359.141 36.087C359.057 36.087 358.975 36.0671 358.9 36.0288L350.682 31.8197Z" fill="url(#paint3_linear_355_849)" fill-opacity="0.7"/>
<path d="M350.682 31.2886C350.682 30.5873 350.961 29.9147 351.457 29.4188C351.953 28.9229 352.625 28.6443 353.326 28.6443H364.959C365.66 28.6443 366.333 28.9229 366.829 29.4188C367.324 29.9147 367.603 30.5873 367.603 31.2886V32.1348L359.382 36.346C359.308 36.3842 359.225 36.4042 359.141 36.4042C359.057 36.4042 358.975 36.3842 358.9 36.346L350.682 32.1369V31.2886Z" fill="url(#paint4_linear_355_849)"/>
<g filter="url(#filter3_d_355_849)">
<rect x="280.942" y="347.77" width="75.3669" height="75.7299" rx="3.29072" fill="white"/>
</g>
<g clip-path="url(#clip1_355_849)">
<path d="M295.537 385.345C295.536 389.418 296.603 393.394 298.633 396.898L295.343 408.873L307.634 405.66C311.034 407.505 314.842 408.472 318.713 408.472H318.723C331.501 408.472 341.902 398.105 341.907 385.364C341.91 379.189 339.5 373.383 335.123 369.015C330.746 364.648 324.925 362.241 318.722 362.238C305.943 362.238 295.543 372.604 295.538 385.345" fill="url(#paint5_linear_355_849)"/>
<path d="M294.71 385.338C294.708 389.556 295.814 393.675 297.915 397.305L294.508 409.709L307.24 406.38C310.748 408.287 314.697 409.293 318.716 409.294H318.726C331.962 409.294 342.737 398.555 342.743 385.357C342.745 378.961 340.249 372.946 335.715 368.421C331.18 363.897 325.151 361.404 318.726 361.402C305.488 361.402 294.715 372.14 294.71 385.338ZM302.292 396.68L301.816 395.927C299.818 392.759 298.763 389.098 298.765 385.339C298.769 374.369 307.723 365.444 318.734 365.444C324.066 365.447 329.077 367.519 332.846 371.279C336.615 375.04 338.689 380.039 338.688 385.355C338.683 396.325 329.729 405.251 318.726 405.251H318.719C315.136 405.249 311.623 404.29 308.559 402.478L307.83 402.046L300.274 404.021L302.292 396.68Z" fill="url(#paint6_linear_355_849)"/>
<path d="M312.724 375.331C312.274 374.335 311.801 374.315 311.374 374.297C311.023 374.282 310.623 374.283 310.223 374.283C309.823 374.283 309.173 374.433 308.623 375.032C308.073 375.631 306.523 377.078 306.523 380.021C306.523 382.965 308.673 385.81 308.973 386.209C309.273 386.608 313.125 392.842 319.224 395.24C324.293 397.233 325.325 396.837 326.425 396.737C327.525 396.637 329.975 395.29 330.475 393.893C330.976 392.496 330.976 391.299 330.826 391.048C330.676 390.799 330.275 390.649 329.675 390.35C329.075 390.051 326.125 388.604 325.575 388.404C325.025 388.204 324.625 388.105 324.224 388.704C323.824 389.302 322.675 390.649 322.325 391.048C321.975 391.448 321.625 391.498 321.025 391.199C320.424 390.899 318.492 390.268 316.199 388.23C314.415 386.644 313.21 384.685 312.86 384.086C312.51 383.488 312.823 383.164 313.124 382.866C313.393 382.598 313.724 382.167 314.024 381.818C314.324 381.468 314.423 381.219 314.624 380.82C314.824 380.421 314.724 380.071 314.574 379.772C314.423 379.473 313.257 376.514 312.724 375.331Z" fill="white"/>
</g>
<g filter="url(#filter4_d_355_849)">
<rect x="20.1725" y="320.507" width="64.8156" height="65.1277" rx="3.29072" fill="white"/>
</g>
<g clip-path="url(#clip2_355_849)">
<path d="M38.4015 339.005C35.8548 341.663 36.376 344.486 36.376 353.064C36.376 360.187 35.1392 367.328 41.6126 369.009C43.634 369.532 61.5447 369.532 63.5635 369.007C66.2587 368.308 68.4516 366.111 68.7514 362.281C68.7933 361.746 68.7933 344.391 68.7501 343.846C68.4314 339.766 65.9319 337.414 62.6385 336.938C61.8837 336.828 61.7324 336.796 57.8597 336.789C44.1229 336.796 41.1116 336.181 38.4015 339.005Z" fill="url(#paint7_linear_355_849)"/>
<path d="M52.5778 341.048C47.6748 341.048 43.0189 340.61 41.2405 345.196C40.5059 347.09 40.6126 349.55 40.6126 353.072C40.6126 356.163 40.514 359.068 41.2405 360.947C43.0148 365.536 47.7085 365.097 52.5751 365.097C57.2702 365.097 62.1111 365.588 63.9111 360.947C64.647 359.034 64.539 356.611 64.539 353.072C64.539 348.375 64.7969 345.343 62.5297 343.066C60.2341 340.759 57.1297 341.048 52.5724 341.048H52.5778ZM51.5056 343.215C61.733 343.199 63.0347 342.056 62.3163 357.927C62.0611 363.54 57.8076 362.924 52.5792 362.924C43.0459 362.924 42.7717 362.65 42.7717 353.067C42.7717 343.372 43.5279 343.221 51.5056 343.212V343.215ZM58.9648 345.211C58.1722 345.211 57.5294 345.857 57.5294 346.653C57.5294 347.45 58.1722 348.096 58.9648 348.096C59.7575 348.096 60.4002 347.45 60.4002 346.653C60.4002 345.857 59.7575 345.211 58.9648 345.211ZM52.5778 346.898C49.1844 346.898 46.4338 349.663 46.4338 353.072C46.4338 356.482 49.1844 359.246 52.5778 359.246C55.9712 359.246 58.7204 356.482 58.7204 353.072C58.7204 349.663 55.9712 346.898 52.5778 346.898ZM52.5778 349.064C57.8508 349.064 57.8576 357.08 52.5778 357.08C47.3061 357.08 47.298 349.064 52.5778 349.064Z" fill="white"/>
</g>
<g filter="url(#filter5_d_355_849)">
<rect x="20.1725" y="171.319" width="52.7569" height="53.0109" rx="3.29072" fill="white"/>
</g>
<path d="M53.0832 201.335H40.0196L37.0049 204.35V187.267C37.0049 185.609 38.3615 184.252 40.0196 184.252H53.0832C54.7412 184.252 56.0978 185.609 56.0978 187.267V198.32C56.0978 199.979 54.7412 201.335 53.0832 201.335Z" fill="#009688"/>
<path d="M46.5509 194.301C47.3834 194.301 48.0583 193.626 48.0583 192.794C48.0583 191.961 47.3834 191.286 46.5509 191.286C45.7184 191.286 45.0436 191.961 45.0436 192.794C45.0436 193.626 45.7184 194.301 46.5509 194.301Z" fill="white"/>
<path d="M51.5757 194.301C52.4082 194.301 53.083 193.626 53.083 192.794C53.083 191.961 52.4082 191.286 51.5757 191.286C50.7432 191.286 50.0684 191.961 50.0684 192.794C50.0684 193.626 50.7432 194.301 51.5757 194.301Z" fill="white"/>
<path d="M41.5269 194.301C42.3594 194.301 43.0342 193.626 43.0342 192.794C43.0342 191.961 42.3594 191.286 41.5269 191.286C40.6944 191.286 40.0195 191.961 40.0195 192.794C40.0195 193.626 40.6944 194.301 41.5269 194.301Z" fill="white"/>
<defs>
<filter id="filter0_d_355_849" x="124.291" y="86.8906" width="313.537" height="257.035" filterUnits="userSpaceOnUse" color-interpolation-filters="sRGB">
<feFlood flood-opacity="0" result="BackgroundImageFix"/>
<feColorMatrix in="SourceAlpha" type="matrix" values="0 0 0 0 0 0 0 0 0 0 0 0 0 0 0 0 0 0 127 0" result="hardAlpha"/>
<feMorphology radius="2" operator="erode" in="SourceAlpha" result="effect1_dropShadow_355_849"/>
<feOffset dy="8"/>
<feGaussianBlur stdDeviation="20"/>
<feColorMatrix type="matrix" values="0 0 0 0 0.0235294 0 0 0 0 0.0470588 0 0 0 0 0.231373 0 0 0 0.08 0"/>
<feBlend mode="normal" in2="BackgroundImageFix" result="effect1_dropShadow_355_849"/>
<feBlend mode="normal" in="SourceGraphic" in2="effect1_dropShadow_355_849" result="shape"/>
</filter>
<filter id="filter1_d_355_849" x="82.3095" y="25.055" width="67.1584" height="67.3761" filterUnits="userSpaceOnUse" color-interpolation-filters="sRGB">
<feFlood flood-opacity="0" result="BackgroundImageFix"/>
<feColorMatrix in="SourceAlpha" type="matrix" values="0 0 0 0 0 0 0 0 0 0 0 0 0 0 0 0 0 0 127 0" result="hardAlpha"/>
<feOffset dy="3.29072"/>
<feGaussianBlur stdDeviation="5.48454"/>
<feColorMatrix type="matrix" values="0 0 0 0 0.11 0 0 0 0 0.14137 0 0 0 0 0.4125 0 0 0 0.05 0"/>
<feBlend mode="normal" in2="BackgroundImageFix" result="effect1_dropShadow_355_849"/>
<feBlend mode="normal" in="SourceGraphic" in2="effect1_dropShadow_355_849" result="shape"/>
</filter>
<filter id="filter2_d_355_849" x="321.976" y="0.82165" width="74.695" height="74.9491" filterUnits="userSpaceOnUse" color-interpolation-filters="sRGB">
<feFlood flood-opacity="0" result="BackgroundImageFix"/>
<feColorMatrix in="SourceAlpha" type="matrix" values="0 0 0 0 0 0 0 0 0 0 0 0 0 0 0 0 0 0 127 0" result="hardAlpha"/>
<feOffset dy="3.29072"/>
<feGaussianBlur stdDeviation="5.48454"/>
<feColorMatrix type="matrix" values="0 0 0 0 0.11 0 0 0 0 0.14137 0 0 0 0 0.4125 0 0 0 0.05 0"/>
<feBlend mode="normal" in2="BackgroundImageFix" result="effect1_dropShadow_355_849"/>
<feBlend mode="normal" in="SourceGraphic" in2="effect1_dropShadow_355_849" result="shape"/>
</filter>
<filter id="filter3_d_355_849" x="269.973" y="340.092" width="97.3051" height="97.6681" filterUnits="userSpaceOnUse" color-interpolation-filters="sRGB">
<feFlood flood-opacity="0" result="BackgroundImageFix"/>
<feColorMatrix in="SourceAlpha" type="matrix" values="0 0 0 0 0 0 0 0 0 0 0 0 0 0 0 0 0 0 127 0" result="hardAlpha"/>
<feOffset dy="3.29072"/>
<feGaussianBlur stdDeviation="5.48454"/>
<feColorMatrix type="matrix" values="0 0 0 0 0.11 0 0 0 0 0.14137 0 0 0 0 0.4125 0 0 0 0.05 0"/>
<feBlend mode="normal" in2="BackgroundImageFix" result="effect1_dropShadow_355_849"/>
<feBlend mode="normal" in="SourceGraphic" in2="effect1_dropShadow_355_849" result="shape"/>
</filter>
<filter id="filter4_d_355_849" x="0.172485" y="306.507" width="104.816" height="105.128" filterUnits="userSpaceOnUse" color-interpolation-filters="sRGB">
<feFlood flood-opacity="0" result="BackgroundImageFix"/>
<feColorMatrix in="SourceAlpha" type="matrix" values="0 0 0 0 0 0 0 0 0 0 0 0 0 0 0 0 0 0 127 0" result="hardAlpha"/>
<feOffset dy="6"/>
<feGaussianBlur stdDeviation="10"/>
<feColorMatrix type="matrix" values="0 0 0 0 0.11 0 0 0 0 0.14137 0 0 0 0 0.4125 0 0 0 0.05 0"/>
<feBlend mode="normal" in2="BackgroundImageFix" result="effect1_dropShadow_355_849"/>
<feBlend mode="normal" in="SourceGraphic" in2="effect1_dropShadow_355_849" result="shape"/>
</filter>
<filter id="filter5_d_355_849" x="9.20341" y="163.641" width="74.695" height="74.9491" filterUnits="userSpaceOnUse" color-interpolation-filters="sRGB">
<feFlood flood-opacity="0" result="BackgroundImageFix"/>
<feColorMatrix in="SourceAlpha" type="matrix" values="0 0 0 0 0 0 0 0 0 0 0 0 0 0 0 0 0 0 127 0" result="hardAlpha"/>
<feOffset dy="3.29072"/>
<feGaussianBlur stdDeviation="5.48454"/>
<feColorMatrix type="matrix" values="0 0 0 0 0.11 0 0 0 0 0.14137 0 0 0 0 0.4125 0 0 0 0.05 0"/>
<feBlend mode="normal" in2="BackgroundImageFix" result="effect1_dropShadow_355_849"/>
<feBlend mode="normal" in="SourceGraphic" in2="effect1_dropShadow_355_849" result="shape"/>
</filter>
<linearGradient id="paint0_linear_355_849" x1="361.609" y1="33.2279" x2="365.606" y2="42.5367" gradientUnits="userSpaceOnUse">
<stop offset="0.199" stop-color="#0094F0" stop-opacity="0"/>
<stop offset="0.431" stop-color="#0094F0"/>
</linearGradient>
<linearGradient id="paint1_linear_355_849" x1="356.725" y1="32.8937" x2="352.477" y2="42.8561" gradientUnits="userSpaceOnUse">
<stop offset="0.191" stop-color="#0094F0" stop-opacity="0"/>
<stop offset="0.431" stop-color="#0094F0"/>
</linearGradient>
<linearGradient id="paint2_linear_355_849" x1="363.604" y1="37.9179" x2="364.292" y2="42.9908" gradientUnits="userSpaceOnUse">
<stop stop-color="#2764E7" stop-opacity="0"/>
<stop offset="1" stop-color="#2764E7"/>
</linearGradient>
<linearGradient id="paint3_linear_355_849" x1="361.762" y1="33.0735" x2="363.017" y2="43.397" gradientUnits="userSpaceOnUse">
<stop offset="0.533" stop-color="#FF6CE8" stop-opacity="0"/>
<stop offset="1" stop-color="#FF6CE8"/>
</linearGradient>
<linearGradient id="paint4_linear_355_849" x1="355.709" y1="26.215" x2="360.888" y2="39.778" gradientUnits="userSpaceOnUse">
<stop stop-color="#6CE0FF"/>
<stop offset="0.462" stop-color="#29C3FF"/>
<stop offset="1" stop-color="#4894FE"/>
</linearGradient>
<linearGradient id="paint5_linear_355_849" x1="2623.55" y1="5025.7" x2="2623.55" y2="362.238" gradientUnits="userSpaceOnUse">
<stop stop-color="#1FAF38"/>
<stop offset="1" stop-color="#60D669"/>
</linearGradient>
<linearGradient id="paint6_linear_355_849" x1="2706.25" y1="5192.09" x2="2706.25" y2="361.402" gradientUnits="userSpaceOnUse">
<stop stop-color="#F9F9F9"/>
<stop offset="1" stop-color="white"/>
</linearGradient>
<linearGradient id="paint7_linear_355_849" x1="38.4637" y1="367.273" x2="68.7071" y2="341.223" gradientUnits="userSpaceOnUse">
<stop stop-color="#FFDD55"/>
<stop offset="0.5" stop-color="#FF543E"/>
<stop offset="1" stop-color="#C837AB"/>
</linearGradient>
<clipPath id="clip0_355_849">
<rect width="22.6101" height="22.719" fill="white" transform="translate(104.583 44.093)"/>
</clipPath>
<clipPath id="clip1_355_849">
<rect width="48.2348" height="48.4671" fill="white" transform="translate(294.508 361.402)"/>
</clipPath>
<clipPath id="clip2_355_849">
<rect width="32.4078" height="32.5639" fill="white" transform="translate(36.3766 336.789)"/>
</clipPath>
</defs>
</svg>
