<svg width="514" height="119" viewBox="0 0 514 119" fill="none" xmlns="http://www.w3.org/2000/svg">
<g filter="url(#filter0_d_364_1121)">
<g clip-path="url(#clip0_364_1121)">
<mask id="path-1-inside-1_364_1121" fill="white">
<path d="M32 40C32 31.1635 39.1634 24 48 24H466C474.837 24 482 31.1634 482 40V304.34C482 313.177 474.837 320.34 466 320.34H48C39.1634 320.34 32 313.177 32 304.34V40Z"/>
</mask>
<path d="M32 40C32 31.1635 39.1634 24 48 24H466C474.837 24 482 31.1634 482 40V304.34C482 313.177 474.837 320.34 466 320.34H48C39.1634 320.34 32 313.177 32 304.34V40Z" fill="#151515"/>
<g clip-path="url(#clip1_364_1121)">
<path d="M68.9423 114.326C68.2065 114.326 67.5718 114.163 67.0382 113.839C66.5079 113.51 66.0986 113.053 65.8102 112.466C65.5252 111.877 65.3827 111.19 65.3827 110.408C65.3827 109.626 65.5252 108.937 65.8102 108.34C66.0986 107.74 66.4996 107.273 67.0133 106.938C67.5304 106.6 68.1336 106.431 68.823 106.431C69.2207 106.431 69.6135 106.497 70.0013 106.63C70.389 106.762 70.742 106.978 71.0602 107.276C71.3784 107.571 71.6319 107.962 71.8209 108.449C72.0098 108.937 72.1042 109.537 72.1042 110.249V110.746H66.2179V109.732H70.9111C70.9111 109.301 70.8249 108.917 70.6525 108.579C70.4835 108.241 70.2416 107.974 69.9267 107.778C69.6151 107.583 69.2472 107.485 68.823 107.485C68.3557 107.485 67.9513 107.601 67.6099 107.833C67.2719 108.062 67.0117 108.36 66.8294 108.728C66.6471 109.096 66.556 109.49 66.556 109.911V110.587C66.556 111.164 66.6554 111.653 66.8542 112.054C67.0564 112.452 67.3365 112.755 67.6944 112.964C68.0524 113.169 68.4684 113.272 68.9423 113.272C69.2506 113.272 69.529 113.229 69.7775 113.143C70.0294 113.053 70.2465 112.921 70.4288 112.745C70.6111 112.566 70.752 112.344 70.8514 112.079L71.9849 112.397C71.8656 112.781 71.6651 113.119 71.3834 113.411C71.1016 113.699 70.7536 113.925 70.3393 114.087C69.925 114.246 69.4594 114.326 68.9423 114.326ZM74.559 106.53L76.3885 109.653L78.2181 106.53H79.5703L77.1044 110.349L79.5703 114.167H78.2181L76.3885 111.204L74.559 114.167H73.2067L75.6328 110.349L73.2067 106.53H74.559ZM81.2445 117.03V106.53H82.378V107.743H82.5172C82.6034 107.611 82.7227 107.442 82.8752 107.236C83.031 107.028 83.253 106.842 83.5414 106.68C83.8331 106.514 84.2275 106.431 84.7246 106.431C85.3676 106.431 85.9344 106.592 86.4249 106.913C86.9154 107.235 87.2983 107.69 87.5734 108.28C87.8484 108.87 87.986 109.566 87.986 110.368C87.986 111.177 87.8484 111.878 87.5734 112.471C87.2983 113.061 86.9171 113.519 86.4299 113.844C85.9427 114.165 85.3809 114.326 84.7445 114.326C84.254 114.326 83.8612 114.245 83.5663 114.082C83.2713 113.917 83.0442 113.729 82.8851 113.52C82.7261 113.308 82.6034 113.133 82.5172 112.993H82.4178V117.03H81.2445ZM82.3979 110.349C82.3979 110.925 82.4824 111.434 82.6515 111.875C82.8205 112.312 83.0674 112.655 83.3922 112.904C83.7171 113.149 84.1148 113.272 84.5854 113.272C85.076 113.272 85.4853 113.143 85.8134 112.884C86.1448 112.622 86.3934 112.271 86.5591 111.83C86.7282 111.386 86.8127 110.892 86.8127 110.349C86.8127 109.812 86.7298 109.328 86.5641 108.897C86.4017 108.463 86.1548 108.12 85.8234 107.868C85.4952 107.613 85.0826 107.485 84.5854 107.485C84.1082 107.485 83.7071 107.606 83.3823 107.848C83.0575 108.086 82.8122 108.421 82.6465 108.852C82.4808 109.28 82.3979 109.778 82.3979 110.349ZM92.878 114.326C92.1886 114.326 91.5838 114.162 91.0634 113.834C90.5464 113.506 90.142 113.046 89.8503 112.457C89.562 111.867 89.4178 111.177 89.4178 110.388C89.4178 109.593 89.562 108.899 89.8503 108.305C90.142 107.712 90.5464 107.251 91.0634 106.923C91.5838 106.595 92.1886 106.431 92.878 106.431C93.5674 106.431 94.1707 106.595 94.6877 106.923C95.2081 107.251 95.6124 107.712 95.9008 108.305C96.1924 108.899 96.3383 109.593 96.3383 110.388C96.3383 111.177 96.1924 111.867 95.9008 112.457C95.6124 113.046 95.2081 113.506 94.6877 113.834C94.1707 114.162 93.5674 114.326 92.878 114.326ZM92.878 113.272C93.4017 113.272 93.8326 113.138 94.1707 112.869C94.5087 112.601 94.759 112.248 94.9214 111.81C95.0838 111.373 95.165 110.899 95.165 110.388C95.165 109.878 95.0838 109.402 94.9214 108.961C94.759 108.521 94.5087 108.164 94.1707 107.893C93.8326 107.621 93.4017 107.485 92.878 107.485C92.3544 107.485 91.9235 107.621 91.5854 107.893C91.2474 108.164 90.9971 108.521 90.8347 108.961C90.6723 109.402 90.5911 109.878 90.5911 110.388C90.5911 110.899 90.6723 111.373 90.8347 111.81C90.9971 112.248 91.2474 112.601 91.5854 112.869C91.9235 113.138 92.3544 113.272 92.878 113.272ZM98.1293 114.167V106.53H99.2628V107.684H99.3424C99.4816 107.306 99.7335 106.999 100.098 106.764C100.463 106.529 100.874 106.411 101.331 106.411C101.417 106.411 101.525 106.413 101.654 106.416C101.783 106.419 101.881 106.424 101.947 106.431V107.624C101.908 107.614 101.817 107.599 101.674 107.579C101.535 107.556 101.387 107.545 101.232 107.545C100.86 107.545 100.529 107.622 100.237 107.778C99.9489 107.931 99.7202 108.143 99.5512 108.415C99.3854 108.683 99.3026 108.99 99.3026 109.334V114.167H98.1293ZM107.138 106.53V107.525H103.18V106.53H107.138ZM104.334 104.701H105.507V111.979C105.507 112.311 105.555 112.559 105.651 112.725C105.751 112.887 105.877 112.997 106.029 113.053C106.185 113.106 106.349 113.133 106.521 113.133C106.651 113.133 106.757 113.126 106.84 113.113C106.922 113.096 106.989 113.083 107.038 113.073L107.277 114.127C107.197 114.157 107.086 114.187 106.944 114.216C106.801 114.25 106.621 114.266 106.402 114.266C106.071 114.266 105.746 114.195 105.428 114.052C105.113 113.91 104.851 113.693 104.642 113.401C104.437 113.109 104.334 112.742 104.334 112.297V104.701ZM115.724 114.326C115.087 114.326 114.526 114.165 114.038 113.844C113.551 113.519 113.17 113.061 112.895 112.471C112.62 111.878 112.482 111.177 112.482 110.368C112.482 109.566 112.62 108.87 112.895 108.28C113.17 107.69 113.553 107.235 114.043 106.913C114.534 106.592 115.101 106.431 115.744 106.431C116.241 106.431 116.634 106.514 116.922 106.68C117.214 106.842 117.436 107.028 117.588 107.236C117.744 107.442 117.865 107.611 117.951 107.743H118.05V103.985H119.224V114.167H118.09V112.993H117.951C117.865 113.133 117.742 113.308 117.583 113.52C117.424 113.729 117.197 113.917 116.902 114.082C116.607 114.245 116.214 114.326 115.724 114.326ZM115.883 113.272C116.353 113.272 116.751 113.149 117.076 112.904C117.401 112.655 117.648 112.312 117.817 111.875C117.986 111.434 118.07 110.925 118.07 110.349C118.07 109.778 117.987 109.28 117.822 108.852C117.656 108.421 117.411 108.086 117.086 107.848C116.761 107.606 116.36 107.485 115.883 107.485C115.386 107.485 114.971 107.613 114.64 107.868C114.312 108.12 114.065 108.463 113.899 108.897C113.737 109.328 113.656 109.812 113.656 110.349C113.656 110.892 113.738 111.386 113.904 111.83C114.073 112.271 114.322 112.622 114.65 112.884C114.981 113.143 115.392 113.272 115.883 113.272ZM124.737 114.326C124.001 114.326 123.367 114.163 122.833 113.839C122.303 113.51 121.893 113.053 121.605 112.466C121.32 111.877 121.178 111.19 121.178 110.408C121.178 109.626 121.32 108.937 121.605 108.34C121.893 107.74 122.295 107.273 122.808 106.938C123.325 106.6 123.929 106.431 124.618 106.431C125.016 106.431 125.408 106.497 125.796 106.63C126.184 106.762 126.537 106.978 126.855 107.276C127.173 107.571 127.427 107.962 127.616 108.449C127.805 108.937 127.899 109.537 127.899 110.249V110.746H122.013V109.732H126.706C126.706 109.301 126.62 108.917 126.447 108.579C126.278 108.241 126.036 107.974 125.722 107.778C125.41 107.583 125.042 107.485 124.618 107.485C124.151 107.485 123.746 107.601 123.405 107.833C123.067 108.062 122.807 108.36 122.624 108.728C122.442 109.096 122.351 109.49 122.351 109.911V110.587C122.351 111.164 122.45 111.653 122.649 112.054C122.851 112.452 123.131 112.755 123.489 112.964C123.847 113.169 124.263 113.272 124.737 113.272C125.045 113.272 125.324 113.229 125.572 113.143C125.824 113.053 126.041 112.921 126.224 112.745C126.406 112.566 126.547 112.344 126.646 112.079L127.78 112.397C127.661 112.781 127.46 113.119 127.178 113.411C126.897 113.699 126.549 113.925 126.134 114.087C125.72 114.246 125.254 114.326 124.737 114.326ZM133.085 106.53V107.525H128.968V106.53H133.085ZM130.201 114.167V105.476C130.201 105.039 130.304 104.674 130.509 104.383C130.715 104.091 130.982 103.872 131.31 103.726C131.638 103.581 131.984 103.508 132.349 103.508C132.637 103.508 132.872 103.531 133.055 103.577C133.237 103.624 133.373 103.667 133.462 103.707L133.124 104.721C133.065 104.701 132.982 104.676 132.876 104.646C132.773 104.616 132.637 104.601 132.468 104.601C132.08 104.601 131.8 104.699 131.628 104.895C131.459 105.09 131.374 105.377 131.374 105.755V114.167H130.201ZM136.757 114.346C136.273 114.346 135.834 114.255 135.44 114.072C135.045 113.887 134.732 113.62 134.5 113.272C134.268 112.921 134.152 112.496 134.152 111.999C134.152 111.562 134.238 111.207 134.411 110.935C134.583 110.66 134.813 110.445 135.102 110.289C135.39 110.133 135.708 110.017 136.056 109.941C136.408 109.861 136.761 109.798 137.115 109.752C137.579 109.692 137.955 109.648 138.244 109.618C138.535 109.585 138.748 109.53 138.88 109.454C139.016 109.377 139.084 109.245 139.084 109.056V109.016C139.084 108.526 138.95 108.144 138.681 107.873C138.416 107.601 138.013 107.465 137.473 107.465C136.913 107.465 136.474 107.588 136.156 107.833C135.838 108.078 135.614 108.34 135.485 108.618L134.371 108.221C134.57 107.757 134.835 107.395 135.166 107.137C135.501 106.875 135.866 106.693 136.26 106.59C136.658 106.484 137.049 106.431 137.433 106.431C137.679 106.431 137.96 106.461 138.279 106.52C138.6 106.577 138.91 106.694 139.208 106.873C139.51 107.052 139.76 107.323 139.959 107.684C140.158 108.045 140.257 108.529 140.257 109.135V114.167H139.084V113.133H139.024C138.945 113.298 138.812 113.476 138.627 113.665C138.441 113.854 138.194 114.014 137.886 114.147C137.578 114.279 137.201 114.346 136.757 114.346ZM136.936 113.292C137.4 113.292 137.791 113.201 138.11 113.018C138.431 112.836 138.673 112.601 138.835 112.312C139.001 112.024 139.084 111.721 139.084 111.403V110.329C139.034 110.388 138.925 110.443 138.756 110.493C138.59 110.539 138.398 110.581 138.179 110.617C137.964 110.65 137.753 110.68 137.548 110.707C137.346 110.73 137.182 110.75 137.056 110.766C136.751 110.806 136.466 110.871 136.2 110.96C135.939 111.046 135.727 111.177 135.564 111.353C135.405 111.525 135.325 111.76 135.325 112.059C135.325 112.466 135.476 112.775 135.778 112.984C136.083 113.189 136.469 113.292 136.936 113.292ZM147.211 111.045V106.53H148.385V114.167H147.211V112.874H147.132C146.953 113.262 146.674 113.592 146.297 113.863C145.919 114.132 145.441 114.266 144.865 114.266C144.387 114.266 143.963 114.162 143.592 113.953C143.221 113.741 142.929 113.423 142.717 112.998C142.505 112.571 142.399 112.032 142.399 111.383V106.53H143.572V111.303C143.572 111.86 143.728 112.304 144.039 112.635C144.354 112.967 144.755 113.133 145.243 113.133C145.534 113.133 145.831 113.058 146.132 112.909C146.437 112.76 146.693 112.531 146.898 112.223C147.107 111.915 147.211 111.522 147.211 111.045ZM151.707 103.985V114.167H150.534V103.985H151.707ZM157.177 106.53V107.525H153.219V106.53H157.177ZM154.373 104.701H155.546V111.979C155.546 112.311 155.594 112.559 155.69 112.725C155.79 112.887 155.916 112.997 156.068 113.053C156.224 113.106 156.388 113.133 156.56 113.133C156.69 113.133 156.796 113.126 156.879 113.113C156.961 113.096 157.028 113.083 157.077 113.073L157.316 114.127C157.237 114.157 157.125 114.187 156.983 114.216C156.84 114.25 156.66 114.266 156.441 114.266C156.11 114.266 155.785 114.195 155.467 114.052C155.152 113.91 154.89 113.693 154.681 113.401C154.476 113.109 154.373 112.742 154.373 112.297V104.701Z" fill="#9F7AEA"/>
<path d="M162.342 106.53V107.525H158.226V106.53H162.342ZM159.459 114.167V105.476C159.459 105.039 159.562 104.674 159.767 104.383C159.973 104.091 160.239 103.872 160.567 103.726C160.896 103.581 161.242 103.508 161.607 103.508C161.895 103.508 162.13 103.531 162.313 103.577C162.495 103.624 162.631 103.667 162.72 103.707L162.382 104.721C162.322 104.701 162.24 104.676 162.134 104.646C162.031 104.616 161.895 104.601 161.726 104.601C161.338 104.601 161.058 104.699 160.886 104.895C160.717 105.09 160.632 105.377 160.632 105.755V114.167H159.459ZM168.799 111.045V106.53H169.973V114.167H168.799V112.874H168.72C168.541 113.262 168.262 113.592 167.884 113.863C167.507 114.132 167.029 114.266 166.453 114.266C165.975 114.266 165.551 114.162 165.18 113.953C164.809 113.741 164.517 113.423 164.305 112.998C164.093 112.571 163.987 112.032 163.987 111.383V106.53H165.16V111.303C165.16 111.86 165.316 112.304 165.627 112.635C165.942 112.967 166.343 113.133 166.83 113.133C167.122 113.133 167.419 113.058 167.72 112.909C168.025 112.76 168.281 112.531 168.486 112.223C168.695 111.915 168.799 111.522 168.799 111.045ZM173.295 109.573V114.167H172.121V106.53H173.255V107.724H173.354C173.533 107.336 173.805 107.024 174.17 106.789C174.534 106.55 175.005 106.431 175.582 106.431C176.099 106.431 176.551 106.537 176.939 106.749C177.327 106.958 177.628 107.276 177.844 107.704C178.059 108.128 178.167 108.665 178.167 109.314V114.167H176.994V109.394C176.994 108.794 176.838 108.327 176.526 107.992C176.215 107.654 175.787 107.485 175.244 107.485C174.869 107.485 174.534 107.566 174.239 107.729C173.948 107.891 173.717 108.128 173.548 108.439C173.379 108.751 173.295 109.129 173.295 109.573ZM183.413 114.326C182.697 114.326 182.081 114.157 181.564 113.819C181.047 113.481 180.649 113.015 180.371 112.422C180.092 111.828 179.953 111.151 179.953 110.388C179.953 109.613 180.095 108.928 180.381 108.335C180.669 107.738 181.07 107.273 181.584 106.938C182.101 106.6 182.704 106.431 183.393 106.431C183.93 106.431 184.414 106.53 184.845 106.729C185.276 106.928 185.629 107.207 185.904 107.564C186.179 107.922 186.35 108.34 186.416 108.817H185.243C185.153 108.469 184.954 108.161 184.646 107.893C184.341 107.621 183.93 107.485 183.413 107.485C182.956 107.485 182.555 107.604 182.21 107.843C181.869 108.078 181.602 108.411 181.41 108.842C181.221 109.27 181.126 109.772 181.126 110.349C181.126 110.939 181.219 111.452 181.405 111.89C181.594 112.327 181.859 112.667 182.2 112.909C182.545 113.151 182.949 113.272 183.413 113.272C183.718 113.272 183.995 113.219 184.243 113.113C184.492 113.007 184.702 112.854 184.875 112.655C185.047 112.457 185.17 112.218 185.243 111.939H186.416C186.35 112.39 186.186 112.796 185.924 113.158C185.665 113.515 185.322 113.801 184.895 114.013C184.47 114.221 183.977 114.326 183.413 114.326ZM191.452 106.53V107.525H187.495V106.53H191.452ZM188.648 104.701H189.822V111.979C189.822 112.311 189.87 112.559 189.966 112.725C190.065 112.887 190.191 112.997 190.344 113.053C190.499 113.106 190.663 113.133 190.836 113.133C190.965 113.133 191.071 113.126 191.154 113.113C191.237 113.096 191.303 113.083 191.353 113.073L191.591 114.127C191.512 114.157 191.401 114.187 191.258 114.216C191.116 114.25 190.935 114.266 190.716 114.266C190.385 114.266 190.06 114.195 189.742 114.052C189.427 113.91 189.165 113.693 188.957 113.401C188.751 113.109 188.648 112.742 188.648 112.297V104.701ZM193.217 114.167V106.53H194.39V114.167H193.217ZM193.814 105.258C193.585 105.258 193.388 105.18 193.222 105.024C193.06 104.868 192.979 104.681 192.979 104.462C192.979 104.243 193.06 104.056 193.222 103.9C193.388 103.745 193.585 103.667 193.814 103.667C194.042 103.667 194.238 103.745 194.4 103.9C194.566 104.056 194.649 104.243 194.649 104.462C194.649 104.681 194.566 104.868 194.4 105.024C194.238 105.18 194.042 105.258 193.814 105.258ZM199.642 114.326C198.952 114.326 198.347 114.162 197.827 113.834C197.31 113.506 196.906 113.046 196.614 112.457C196.326 111.867 196.181 111.177 196.181 110.388C196.181 109.593 196.326 108.899 196.614 108.305C196.906 107.712 197.31 107.251 197.827 106.923C198.347 106.595 198.952 106.431 199.642 106.431C200.331 106.431 200.934 106.595 201.451 106.923C201.972 107.251 202.376 107.712 202.664 108.305C202.956 108.899 203.102 109.593 203.102 110.388C203.102 111.177 202.956 111.867 202.664 112.457C202.376 113.046 201.972 113.506 201.451 113.834C200.934 114.162 200.331 114.326 199.642 114.326ZM199.642 113.272C200.165 113.272 200.596 113.138 200.934 112.869C201.272 112.601 201.523 112.248 201.685 111.81C201.847 111.373 201.929 110.899 201.929 110.388C201.929 109.878 201.847 109.402 201.685 108.961C201.523 108.521 201.272 108.164 200.934 107.893C200.596 107.621 200.165 107.485 199.642 107.485C199.118 107.485 198.687 107.621 198.349 107.893C198.011 108.164 197.761 108.521 197.598 108.961C197.436 109.402 197.355 109.878 197.355 110.388C197.355 110.899 197.436 111.373 197.598 111.81C197.761 112.248 198.011 112.601 198.349 112.869C198.687 113.138 199.118 113.272 199.642 113.272ZM206.066 109.573V114.167H204.893V106.53H206.026V107.724H206.126C206.305 107.336 206.577 107.024 206.941 106.789C207.306 106.55 207.776 106.431 208.353 106.431C208.87 106.431 209.323 106.537 209.71 106.749C210.098 106.958 210.4 107.276 210.615 107.704C210.831 108.128 210.938 108.665 210.938 109.314V114.167H209.765V109.394C209.765 108.794 209.609 108.327 209.298 107.992C208.986 107.654 208.559 107.485 208.015 107.485C207.641 107.485 207.306 107.566 207.011 107.729C206.719 107.891 206.489 108.128 206.32 108.439C206.151 108.751 206.066 109.129 206.066 109.573Z" fill="#63B3ED"/>
<path d="M213.659 114.167H212.366L216.105 103.985H217.378L221.116 114.167H219.824L216.781 105.596H216.702L213.659 114.167ZM214.136 110.189H219.347V111.283H214.136V110.189ZM222.543 117.03V106.53H223.677V107.743H223.816C223.902 107.611 224.022 107.442 224.174 107.236C224.33 107.028 224.552 106.842 224.84 106.68C225.132 106.514 225.526 106.431 226.023 106.431C226.666 106.431 227.233 106.592 227.724 106.913C228.214 107.235 228.597 107.69 228.872 108.28C229.147 108.87 229.285 109.566 229.285 110.368C229.285 111.177 229.147 111.878 228.872 112.471C228.597 113.061 228.216 113.519 227.729 113.844C227.241 114.165 226.68 114.326 226.043 114.326C225.553 114.326 225.16 114.245 224.865 114.082C224.57 113.917 224.343 113.729 224.184 113.52C224.025 113.308 223.902 113.133 223.816 112.993H223.717V117.03H222.543ZM223.697 110.349C223.697 110.925 223.781 111.434 223.95 111.875C224.119 112.312 224.366 112.655 224.691 112.904C225.016 113.149 225.414 113.272 225.884 113.272C226.375 113.272 226.784 113.143 227.112 112.884C227.444 112.622 227.692 112.271 227.858 111.83C228.027 111.386 228.112 110.892 228.112 110.349C228.112 109.812 228.029 109.328 227.863 108.897C227.701 108.463 227.454 108.12 227.122 107.868C226.794 107.613 226.381 107.485 225.884 107.485C225.407 107.485 225.006 107.606 224.681 107.848C224.356 108.086 224.111 108.421 223.945 108.852C223.78 109.28 223.697 109.778 223.697 110.349ZM231.075 117.03V106.53H232.208V107.743H232.347C232.433 107.611 232.553 107.442 232.705 107.236C232.861 107.028 233.083 106.842 233.371 106.68C233.663 106.514 234.058 106.431 234.555 106.431C235.198 106.431 235.764 106.592 236.255 106.913C236.746 107.235 237.128 107.69 237.403 108.28C237.679 108.87 237.816 109.566 237.816 110.368C237.816 111.177 237.679 111.878 237.403 112.471C237.128 113.061 236.747 113.519 236.26 113.844C235.773 114.165 235.211 114.326 234.575 114.326C234.084 114.326 233.691 114.245 233.396 114.082C233.101 113.917 232.874 113.729 232.715 113.52C232.556 113.308 232.433 113.133 232.347 112.993H232.248V117.03H231.075ZM232.228 110.349C232.228 110.925 232.313 111.434 232.482 111.875C232.651 112.312 232.898 112.655 233.222 112.904C233.547 113.149 233.945 113.272 234.416 113.272C234.906 113.272 235.315 113.143 235.643 112.884C235.975 112.622 236.224 112.271 236.389 111.83C236.558 111.386 236.643 110.892 236.643 110.349C236.643 109.812 236.56 109.328 236.394 108.897C236.232 108.463 235.985 108.12 235.653 107.868C235.325 107.613 234.913 107.485 234.416 107.485C233.938 107.485 233.537 107.606 233.212 107.848C232.888 108.086 232.642 108.421 232.477 108.852C232.311 109.28 232.228 109.778 232.228 110.349Z" fill="#F6AD55"/>
<path d="M256.202 115.038C254.101 113.092 253.051 110.941 253.051 108.585C253.051 108.033 253.105 107.484 253.215 106.937C253.329 106.386 253.509 105.834 253.755 105.283C254.006 104.732 254.334 104.18 254.739 103.629C255.149 103.077 255.646 102.53 256.229 101.988L256.92 102.692C255.152 104.438 254.268 106.372 254.268 108.496C254.268 109.553 254.491 110.569 254.938 111.545C255.384 112.52 256.045 113.441 256.92 114.306L256.202 115.038ZM261.192 101.988C263.293 103.934 264.344 106.099 264.344 108.482C264.344 108.974 264.294 109.485 264.193 110.013C264.093 110.542 263.922 111.084 263.681 111.64C263.439 112.192 263.113 112.752 262.703 113.322C262.298 113.892 261.785 114.464 261.165 115.038L260.475 114.334C261.363 113.454 262.026 112.536 262.464 111.579C262.901 110.622 263.12 109.619 263.12 108.571C263.12 106.402 262.238 104.451 260.475 102.719L261.192 101.988ZM280.224 114.969H279.718C278.838 114.969 278.184 114.762 277.756 114.347C277.327 113.937 277.113 113.313 277.113 112.474V110.123C277.113 109.899 277.088 109.701 277.038 109.528C276.988 109.35 276.899 109.202 276.771 109.084C276.648 108.961 276.482 108.867 276.272 108.803C276.067 108.74 275.808 108.708 275.493 108.708H275.199V107.758H275.493C275.826 107.758 276.097 107.73 276.307 107.676C276.516 107.621 276.68 107.539 276.799 107.429C276.917 107.316 276.999 107.172 277.045 106.999C277.09 106.826 277.113 106.621 277.113 106.384V104.763C277.113 104.381 277.159 104.037 277.25 103.731C277.341 103.421 277.489 103.159 277.694 102.945C277.904 102.726 278.173 102.56 278.501 102.446C278.834 102.328 279.239 102.268 279.718 102.268H280.224V103.225H279.82C278.763 103.225 278.234 103.738 278.234 104.763V106.356C278.234 107.468 277.754 108.095 276.792 108.236C277.763 108.332 278.248 108.956 278.248 110.109V112.447C278.248 113.491 278.772 114.012 279.82 114.012H280.224V114.969Z" fill="#E2E8F0"/>
<path d="M65.7406 72.1667V64.5304H66.9139V72.1667H65.7406ZM66.3372 63.2577C66.1085 63.2577 65.9113 63.1798 65.7456 63.024C65.5832 62.8682 65.502 62.681 65.502 62.4622C65.502 62.2435 65.5832 62.0562 65.7456 61.9004C65.9113 61.7446 66.1085 61.6667 66.3372 61.6667C66.5659 61.6667 66.7614 61.7446 66.9239 61.9004C67.0896 62.0562 67.1724 62.2435 67.1724 62.4622C67.1724 62.681 67.0896 62.8682 66.9239 63.024C66.7614 63.1798 66.5659 63.2577 66.3372 63.2577ZM69.0629 72.1667V64.5304H70.1964V65.7236H70.2958C70.4549 65.3159 70.7118 64.9994 71.0664 64.774C71.4211 64.5453 71.847 64.431 72.3441 64.431C72.8479 64.431 73.2672 64.5453 73.6019 64.774C73.94 64.9994 74.2035 65.3159 74.3924 65.7236H74.472C74.6675 65.3292 74.9608 65.0159 75.3519 64.7839C75.743 64.5486 76.212 64.431 76.7589 64.431C77.4417 64.431 78.0001 64.6447 78.4343 65.0723C78.8685 65.4965 79.0856 66.1578 79.0856 67.056V72.1667H77.9123V67.056C77.9123 66.4925 77.7582 66.0898 77.45 65.8479C77.1417 65.6059 76.7788 65.4849 76.3612 65.4849C75.8242 65.4849 75.4083 65.6473 75.1133 65.9721C74.8183 66.2936 74.6708 66.7013 74.6708 67.1952V72.1667H73.4777V66.9366C73.4777 66.5024 73.3368 66.1528 73.0551 65.8876C72.7733 65.6192 72.4104 65.4849 71.9663 65.4849C71.6614 65.4849 71.3763 65.5661 71.1112 65.7285C70.8493 65.8909 70.6372 66.1163 70.4748 66.4047C70.3157 66.6897 70.2362 67.0195 70.2362 67.394V72.1667H69.0629ZM81.2308 75.0304V64.5304H82.3644V65.7435H82.5036C82.5897 65.6109 82.7091 65.4418 82.8615 65.2363C83.0173 65.0275 83.2394 64.8419 83.5277 64.6795C83.8194 64.5138 84.2138 64.431 84.711 64.431C85.354 64.431 85.9207 64.5917 86.4112 64.9132C86.9018 65.2347 87.2846 65.6904 87.5597 66.2804C87.8348 66.8703 87.9723 67.5664 87.9723 68.3685C87.9723 69.1772 87.8348 69.8782 87.5597 70.4714C87.2846 71.0614 86.9034 71.5188 86.4162 71.8436C85.929 72.1651 85.3672 72.3258 84.7308 72.3258C84.2403 72.3258 83.8476 72.2446 83.5526 72.0822C83.2576 71.9165 83.0306 71.7292 82.8715 71.5204C82.7124 71.3083 82.5897 71.1327 82.5036 70.9935H82.4041V75.0304H81.2308ZM82.3843 68.3486C82.3843 68.9253 82.4688 69.434 82.6378 69.8748C82.8068 70.3123 83.0538 70.6554 83.3786 70.904C83.7034 71.1492 84.1011 71.2719 84.5718 71.2719C85.0623 71.2719 85.4716 71.1426 85.7997 70.8841C86.1312 70.6222 86.3798 70.2709 86.5455 69.8301C86.7145 69.386 86.799 68.8921 86.799 68.3486C86.799 67.8116 86.7162 67.3277 86.5504 66.8969C86.388 66.4627 86.1411 66.1196 85.8097 65.8677C85.4816 65.6125 85.0689 65.4849 84.5718 65.4849C84.0945 65.4849 83.6934 65.6059 83.3686 65.8479C83.0438 66.0865 82.7986 66.4212 82.6328 66.8521C82.4671 67.2797 82.3843 67.7785 82.3843 68.3486ZM92.8644 72.3258C92.175 72.3258 91.5701 72.1618 91.0497 71.8337C90.5327 71.5055 90.1283 71.0465 89.8367 70.4565C89.5483 69.8666 89.4041 69.1772 89.4041 68.3883C89.4041 67.5929 89.5483 66.8985 89.8367 66.3052C90.1283 65.712 90.5327 65.2513 91.0497 64.9231C91.5701 64.595 92.175 64.431 92.8644 64.431C93.5538 64.431 94.157 64.595 94.674 64.9231C95.1944 65.2513 95.5987 65.712 95.8871 66.3052C96.1788 66.8985 96.3246 67.5929 96.3246 68.3883C96.3246 69.1772 96.1788 69.8666 95.8871 70.4565C95.5987 71.0465 95.1944 71.5055 94.674 71.8337C94.157 72.1618 93.5538 72.3258 92.8644 72.3258ZM92.8644 71.2719C93.388 71.2719 93.8189 71.1376 94.157 70.8692C94.4951 70.6007 94.7453 70.2477 94.9077 69.8102C95.0701 69.3727 95.1513 68.8988 95.1513 68.3883C95.1513 67.8779 95.0701 67.4023 94.9077 66.9615C94.7453 66.5207 94.4951 66.1644 94.157 65.8926C93.8189 65.6208 93.388 65.4849 92.8644 65.4849C92.3407 65.4849 91.9098 65.6208 91.5718 65.8926C91.2337 66.1644 90.9835 66.5207 90.821 66.9615C90.6586 67.4023 90.5774 67.8779 90.5774 68.3883C90.5774 68.8988 90.6586 69.3727 90.821 69.8102C90.9835 70.2477 91.2337 70.6007 91.5718 70.8692C91.9098 71.1376 92.3407 71.2719 92.8644 71.2719ZM98.1156 72.1667V64.5304H99.2491V65.6838H99.3287C99.4679 65.306 99.7198 64.9994 100.084 64.764C100.449 64.5287 100.86 64.4111 101.317 64.4111C101.403 64.4111 101.511 64.4127 101.64 64.416C101.77 64.4194 101.868 64.4243 101.934 64.431V65.6241C101.894 65.6142 101.803 65.5993 101.66 65.5794C101.521 65.5562 101.374 65.5446 101.218 65.5446C100.847 65.5446 100.515 65.6225 100.224 65.7783C99.9352 65.9307 99.7065 66.1428 99.5375 66.4146C99.3718 66.6831 99.2889 66.9897 99.2889 67.3344V72.1667H98.1156ZM107.124 64.5304V65.5247H103.167V64.5304H107.124ZM104.32 62.7008H105.493V69.9792C105.493 70.3107 105.542 70.5593 105.638 70.725C105.737 70.8874 105.863 70.9968 106.015 71.0531C106.171 71.1061 106.335 71.1327 106.508 71.1327C106.637 71.1327 106.743 71.126 106.826 71.1128C106.909 71.0962 106.975 71.0829 107.025 71.073L107.263 72.127C107.184 72.1568 107.073 72.1866 106.93 72.2165C106.788 72.2496 106.607 72.2662 106.388 72.2662C106.057 72.2662 105.732 72.1949 105.414 72.0524C105.099 71.9099 104.837 71.6928 104.628 71.4011C104.423 71.1095 104.32 70.7416 104.32 70.2974V62.7008ZM112.27 67.8912V67.2747C112.823 67.2747 113.209 67.1587 113.428 66.9267C113.65 66.6947 113.761 66.3069 113.761 65.7633V64.1724C113.761 63.715 113.804 63.319 113.89 62.9842C113.98 62.6495 114.124 62.3727 114.323 62.154C114.522 61.9352 114.787 61.7728 115.118 61.6667C115.45 61.5607 115.859 61.5077 116.346 61.5077V62.4821C115.962 62.4821 115.659 62.5417 115.437 62.6611C115.218 62.7804 115.062 62.966 114.969 63.2179C114.88 63.4665 114.835 63.7846 114.835 64.1724V66.1611C114.835 66.4196 114.8 66.6549 114.731 66.867C114.664 67.0792 114.54 67.2614 114.358 67.4139C114.176 67.5664 113.915 67.684 113.577 67.7669C113.243 67.8497 112.807 67.8912 112.27 67.8912ZM116.346 74.2349C115.859 74.2349 115.45 74.1819 115.118 74.0758C114.787 73.9698 114.522 73.8074 114.323 73.5886C114.124 73.3699 113.98 73.0931 113.89 72.7584C113.804 72.4236 113.761 72.0275 113.761 71.5702V69.9792C113.761 69.4357 113.65 69.0479 113.428 68.8159C113.209 68.5839 112.823 68.4679 112.27 68.4679V67.8514C112.807 67.8514 113.243 67.8928 113.577 67.9757C113.915 68.0586 114.176 68.1762 114.358 68.3287C114.54 68.4811 114.664 68.6634 114.731 68.8756C114.8 69.0877 114.835 69.323 114.835 69.5815V71.5702C114.835 71.9579 114.88 72.2761 114.969 72.5247C115.062 72.7733 115.218 72.9572 115.437 73.0765C115.659 73.1992 115.962 73.2605 116.346 73.2605V74.2349ZM112.27 68.4679V67.2747H113.443V68.4679H112.27ZM180.031 67.8514V68.4679C179.478 68.4679 179.09 68.5839 178.868 68.8159C178.649 69.0479 178.54 69.4357 178.54 69.9792V71.5702C178.54 72.0275 178.495 72.4236 178.406 72.7584C178.319 73.0931 178.177 73.3699 177.978 73.5886C177.779 73.8074 177.514 73.9698 177.183 74.0758C176.851 74.1819 176.442 74.2349 175.955 74.2349V73.2605C176.339 73.2605 176.641 73.1992 176.859 73.0765C177.081 72.9572 177.237 72.7733 177.327 72.5247C177.42 72.2761 177.466 71.9579 177.466 71.5702V69.5815C177.466 69.323 177.499 69.0877 177.565 68.8756C177.635 68.6634 177.761 68.4811 177.943 68.3287C178.125 68.1762 178.384 68.0586 178.719 67.9757C179.057 67.8928 179.494 67.8514 180.031 67.8514ZM175.955 61.5077C176.442 61.5077 176.851 61.5607 177.183 61.6667C177.514 61.7728 177.779 61.9352 177.978 62.154C178.177 62.3727 178.319 62.6495 178.406 62.9842C178.495 63.319 178.54 63.715 178.54 64.1724V65.7633C178.54 66.3069 178.649 66.6947 178.868 66.9267C179.09 67.1587 179.478 67.2747 180.031 67.2747V67.8912C179.494 67.8912 179.057 67.8497 178.719 67.7669C178.384 67.684 178.125 67.5664 177.943 67.4139C177.761 67.2614 177.635 67.0792 177.565 66.867C177.499 66.6549 177.466 66.4196 177.466 66.1611V64.1724C177.466 63.7846 177.42 63.4665 177.327 63.2179C177.237 62.966 177.081 62.7804 176.859 62.6611C176.641 62.5417 176.339 62.4821 175.955 62.4821V61.5077ZM180.031 67.2747V68.4679H178.858V67.2747H180.031ZM188.961 64.5304V65.5247H184.845V64.5304H188.961ZM186.078 72.1667V63.4764C186.078 63.0389 186.181 62.6743 186.386 62.3827C186.592 62.091 186.859 61.8722 187.187 61.7264C187.515 61.5806 187.861 61.5077 188.226 61.5077C188.514 61.5077 188.749 61.5309 188.932 61.5773C189.114 61.6237 189.25 61.6667 189.339 61.7065L189.001 62.7207C188.942 62.7008 188.859 62.676 188.753 62.6462C188.65 62.6163 188.514 62.6014 188.345 62.6014C187.957 62.6014 187.677 62.6992 187.505 62.8947C187.336 63.0903 187.251 63.377 187.251 63.7548V72.1667H186.078ZM190.606 72.1667V64.5304H191.739V65.6838H191.819C191.958 65.306 192.21 64.9994 192.575 64.764C192.939 64.5287 193.35 64.4111 193.808 64.4111C193.894 64.4111 194.001 64.4127 194.131 64.416C194.26 64.4194 194.358 64.4243 194.424 64.431V65.6241C194.384 65.6142 194.293 65.5993 194.151 65.5794C194.011 65.5562 193.864 65.5446 193.708 65.5446C193.337 65.5446 193.005 65.6225 192.714 65.7783C192.425 65.9307 192.197 66.1428 192.028 66.4146C191.862 66.6831 191.779 66.9897 191.779 67.3344V72.1667H190.606ZM198.685 72.3258C197.995 72.3258 197.39 72.1618 196.87 71.8337C196.353 71.5055 195.949 71.0465 195.657 70.4565C195.369 69.8666 195.224 69.1772 195.224 68.3883C195.224 67.5929 195.369 66.8985 195.657 66.3052C195.949 65.712 196.353 65.2513 196.87 64.9231C197.39 64.595 197.995 64.431 198.685 64.431C199.374 64.431 199.977 64.595 200.494 64.9231C201.015 65.2513 201.419 65.712 201.707 66.3052C201.999 66.8985 202.145 67.5929 202.145 68.3883C202.145 69.1772 201.999 69.8666 201.707 70.4565C201.419 71.0465 201.015 71.5055 200.494 71.8337C199.977 72.1618 199.374 72.3258 198.685 72.3258ZM198.685 71.2719C199.208 71.2719 199.639 71.1376 199.977 70.8692C200.315 70.6007 200.566 70.2477 200.728 69.8102C200.89 69.3727 200.972 68.8988 200.972 68.3883C200.972 67.8779 200.89 67.4023 200.728 66.9615C200.566 66.5207 200.315 66.1644 199.977 65.8926C199.639 65.6208 199.208 65.4849 198.685 65.4849C198.161 65.4849 197.73 65.6208 197.392 65.8926C197.054 66.1644 196.804 66.5207 196.641 66.9615C196.479 67.4023 196.398 67.8779 196.398 68.3883C196.398 68.8988 196.479 69.3727 196.641 69.8102C196.804 70.2477 197.054 70.6007 197.392 70.8692C197.73 71.1376 198.161 71.2719 198.685 71.2719ZM203.936 72.1667V64.5304H205.069V65.7236H205.169C205.328 65.3159 205.585 64.9994 205.939 64.774C206.294 64.5453 206.72 64.431 207.217 64.431C207.721 64.431 208.14 64.5453 208.475 64.774C208.813 64.9994 209.077 65.3159 209.265 65.7236H209.345C209.541 65.3292 209.834 65.0159 210.225 64.7839C210.616 64.5486 211.085 64.431 211.632 64.431C212.315 64.431 212.873 64.6447 213.307 65.0723C213.742 65.4965 213.959 66.1578 213.959 67.056V72.1667H212.785V67.056C212.785 66.4925 212.631 66.0898 212.323 65.8479C212.015 65.6059 211.652 65.4849 211.234 65.4849C210.697 65.4849 210.281 65.6473 209.986 65.9721C209.691 66.2936 209.544 66.7013 209.544 67.1952V72.1667H208.351V66.9366C208.351 66.5024 208.21 66.1528 207.928 65.8876C207.646 65.6192 207.283 65.4849 206.839 65.4849C206.534 65.4849 206.249 65.5661 205.984 65.7285C205.722 65.8909 205.51 66.1163 205.348 66.4047C205.189 66.6897 205.109 67.0195 205.109 67.394V72.1667H203.936Z" fill="#9F7AEA"/>
<path d="M122.711 69.0446V64.5304H123.885V72.1667H122.711V70.8741H122.632C122.453 71.2619 122.174 71.5917 121.797 71.8635C121.419 72.1319 120.941 72.2662 120.365 72.2662C119.887 72.2662 119.463 72.1618 119.092 71.953C118.721 71.7408 118.429 71.4227 118.217 70.9984C118.005 70.5709 117.899 70.0323 117.899 69.3827V64.5304H119.072V69.3031C119.072 69.8599 119.228 70.3041 119.539 70.6355C119.854 70.9669 120.255 71.1327 120.743 71.1327C121.034 71.1327 121.331 71.0581 121.632 70.9089C121.937 70.7598 122.193 70.5311 122.398 70.2229C122.607 69.9146 122.711 69.5219 122.711 69.0446ZM131.443 66.2406L130.389 66.5389C130.322 66.3632 130.225 66.1926 130.095 66.0268C129.969 65.8578 129.797 65.7186 129.578 65.6092C129.36 65.4998 129.08 65.4452 128.738 65.4452C128.271 65.4452 127.881 65.5529 127.57 65.7683C127.262 65.9804 127.107 66.2506 127.107 66.5787C127.107 66.8703 127.214 67.1007 127.426 67.2697C127.638 67.4388 127.969 67.5796 128.42 67.6923L129.553 67.9707C130.236 68.1364 130.745 68.39 131.08 68.7314C131.414 69.0694 131.582 69.5053 131.582 70.0389C131.582 70.4764 131.456 70.8675 131.204 71.2122C130.955 71.5569 130.607 71.8287 130.16 72.0275C129.713 72.2264 129.192 72.3258 128.599 72.3258C127.82 72.3258 127.175 72.1568 126.665 71.8187C126.155 71.4807 125.831 70.9868 125.696 70.3372L126.809 70.0588C126.915 70.4698 127.116 70.778 127.411 70.9835C127.709 71.189 128.098 71.2917 128.579 71.2917C129.126 71.2917 129.56 71.1757 129.882 70.9437C130.206 70.7084 130.369 70.4267 130.369 70.0986C130.369 69.8334 130.276 69.6114 130.09 69.4324C129.905 69.2501 129.62 69.1142 129.235 69.0247L127.963 68.7264C127.263 68.5607 126.749 68.3038 126.421 67.9558C126.097 67.6045 125.934 67.1653 125.934 66.6383C125.934 66.2075 126.055 65.8263 126.297 65.4949C126.542 65.1634 126.875 64.9033 127.296 64.7143C127.721 64.5254 128.201 64.431 128.738 64.431C129.494 64.431 130.087 64.5967 130.518 64.9281C130.952 65.2596 131.26 65.6971 131.443 66.2406ZM136.55 72.3258C135.814 72.3258 135.179 72.1634 134.646 71.8386C134.115 71.5105 133.706 71.0531 133.418 70.4665C133.133 69.8765 132.99 69.1904 132.99 68.4082C132.99 67.626 133.133 66.9366 133.418 66.34C133.706 65.7401 134.107 65.2728 134.621 64.9381C135.138 64.6 135.741 64.431 136.43 64.431C136.828 64.431 137.221 64.4972 137.609 64.6298C137.996 64.7624 138.349 64.9778 138.668 65.2761C138.986 65.5711 139.239 65.9622 139.428 66.4494C139.617 66.9366 139.712 67.5365 139.712 68.2491V68.7463H133.825V67.7321H138.518C138.518 67.3012 138.432 66.9167 138.26 66.5787C138.091 66.2406 137.849 65.9738 137.534 65.7783C137.223 65.5827 136.855 65.4849 136.43 65.4849C135.963 65.4849 135.559 65.6009 135.217 65.8329C134.879 66.0616 134.619 66.3599 134.437 66.7278C134.255 67.0957 134.163 67.4901 134.163 67.9111V68.5872C134.163 69.1639 134.263 69.6528 134.462 70.0538C134.664 70.4515 134.944 70.7548 135.302 70.9636C135.66 71.1691 136.076 71.2719 136.55 71.2719C136.858 71.2719 137.136 71.2288 137.385 71.1426C137.637 71.0531 137.854 70.9205 138.036 70.7449C138.219 70.5659 138.359 70.3438 138.459 70.0787L139.592 70.3969C139.473 70.7813 139.273 71.1194 138.991 71.4111C138.709 71.6994 138.361 71.9248 137.947 72.0872C137.532 72.2463 137.067 72.3258 136.55 72.3258ZM147.224 64.5304C147.164 64.0266 146.922 63.6355 146.498 63.3571C146.074 63.0787 145.553 62.9395 144.937 62.9395C144.486 62.9395 144.092 63.0124 143.754 63.1582C143.419 63.3041 143.157 63.5046 142.968 63.7598C142.782 64.015 142.69 64.305 142.69 64.6298C142.69 64.9016 142.754 65.1353 142.884 65.3308C143.016 65.523 143.185 65.6838 143.391 65.8131C143.596 65.939 143.812 66.0434 144.037 66.1263C144.262 66.2058 144.469 66.2704 144.658 66.3202L145.692 66.5986C145.958 66.6682 146.253 66.7643 146.577 66.8869C146.906 67.0096 147.219 67.1769 147.517 67.389C147.819 67.5979 148.067 67.8663 148.263 68.1944C148.458 68.5226 148.556 68.9253 148.556 69.4025C148.556 69.9527 148.412 70.4499 148.124 70.894C147.839 71.3381 147.421 71.6911 146.871 71.953C146.324 72.2148 145.659 72.3457 144.877 72.3457C144.148 72.3457 143.517 72.2281 142.983 71.9927C142.453 71.7574 142.035 71.4293 141.73 71.0084C141.429 70.5874 141.258 70.0986 141.218 69.5417H142.491C142.524 69.9262 142.653 70.2444 142.879 70.4963C143.107 70.7449 143.396 70.9305 143.744 71.0531C144.095 71.1724 144.473 71.2321 144.877 71.2321C145.348 71.2321 145.77 71.1559 146.145 71.0034C146.519 70.8476 146.816 70.6322 147.035 70.3571C147.254 70.0787 147.363 69.7539 147.363 69.3827C147.363 69.0446 147.268 68.7695 147.08 68.5574C146.891 68.3453 146.642 68.1729 146.334 68.0403C146.026 67.9078 145.692 67.7917 145.335 67.6923L144.082 67.3344C143.286 67.1057 142.657 66.7792 142.192 66.355C141.728 65.9307 141.496 65.3756 141.496 64.6895C141.496 64.1194 141.651 63.6222 141.959 63.198C142.27 62.7704 142.688 62.439 143.212 62.2037C143.739 61.965 144.327 61.8457 144.977 61.8457C145.633 61.8457 146.216 61.9634 146.727 62.1987C147.237 62.4307 147.641 62.7489 147.94 63.1533C148.241 63.5576 148.4 64.0167 148.417 64.5304H147.224ZM153.745 64.5304V65.5247H149.788V64.5304H153.745ZM150.941 62.7008H152.115V69.9792C152.115 70.3107 152.163 70.5593 152.259 70.725C152.358 70.8874 152.484 70.9968 152.637 71.0531C152.792 71.1061 152.956 71.1327 153.129 71.1327C153.258 71.1327 153.364 71.126 153.447 71.1128C153.53 71.0962 153.596 71.0829 153.646 71.073L153.884 72.127C153.805 72.1568 153.694 72.1866 153.551 72.2165C153.409 72.2496 153.228 72.2662 153.009 72.2662C152.678 72.2662 152.353 72.1949 152.035 72.0524C151.72 71.9099 151.458 71.6928 151.249 71.4011C151.044 71.1095 150.941 70.7416 150.941 70.2974V62.7008ZM157.757 72.3457C157.273 72.3457 156.834 72.2546 156.44 72.0723C156.045 71.8867 155.732 71.6199 155.5 71.2719C155.268 70.9205 155.152 70.4963 155.152 69.9991C155.152 69.5616 155.238 69.207 155.411 68.9352C155.583 68.6601 155.813 68.4447 156.102 68.2889C156.39 68.1331 156.708 68.0171 157.056 67.9409C157.408 67.8614 157.761 67.7984 158.115 67.752C158.579 67.6923 158.955 67.6476 159.244 67.6177C159.535 67.5846 159.748 67.5299 159.88 67.4537C160.016 67.3774 160.084 67.2449 160.084 67.056V67.0162C160.084 66.5256 159.95 66.1445 159.681 65.8727C159.416 65.6009 159.013 65.465 158.473 65.465C157.913 65.465 157.474 65.5877 157.156 65.8329C156.838 66.0782 156.614 66.34 156.485 66.6185L155.371 66.2207C155.57 65.7567 155.835 65.3954 156.166 65.1369C156.501 64.8751 156.866 64.6928 157.26 64.59C157.658 64.484 158.049 64.431 158.433 64.431C158.679 64.431 158.96 64.4608 159.279 64.5204C159.6 64.5768 159.91 64.6944 160.208 64.8734C160.51 65.0524 160.76 65.3225 160.959 65.6838C161.158 66.0451 161.257 66.529 161.257 67.1355V72.1667H160.084V71.1327H160.024C159.945 71.2984 159.812 71.4757 159.627 71.6646C159.441 71.8535 159.194 72.0143 158.886 72.1469C158.578 72.2794 158.201 72.3457 157.757 72.3457ZM157.936 71.2917C158.4 71.2917 158.791 71.2006 159.11 71.0183C159.431 70.836 159.673 70.6007 159.835 70.3123C160.001 70.024 160.084 69.7207 160.084 69.4025V68.3287C160.034 68.3883 159.925 68.443 159.756 68.4927C159.59 68.5391 159.398 68.5806 159.179 68.617C158.964 68.6502 158.753 68.68 158.548 68.7065C158.346 68.7297 158.182 68.7496 158.056 68.7662C157.751 68.806 157.466 68.8706 157.2 68.9601C156.939 69.0462 156.727 69.1772 156.564 69.3528C156.405 69.5252 156.325 69.7605 156.325 70.0588C156.325 70.4665 156.476 70.7747 156.778 70.9835C157.083 71.189 157.469 71.2917 157.936 71.2917ZM166.72 64.5304V65.5247H162.762V64.5304H166.72ZM163.916 62.7008H165.089V69.9792C165.089 70.3107 165.137 70.5593 165.233 70.725C165.333 70.8874 165.459 70.9968 165.611 71.0531C165.767 71.1061 165.931 71.1327 166.103 71.1327C166.233 71.1327 166.339 71.126 166.422 71.1128C166.504 71.0962 166.571 71.0829 166.62 71.073L166.859 72.127C166.779 72.1568 166.668 72.1866 166.526 72.2165C166.383 72.2496 166.203 72.2662 165.984 72.2662C165.653 72.2662 165.328 72.1949 165.01 72.0524C164.695 71.9099 164.433 71.6928 164.224 71.4011C164.019 71.1095 163.916 70.7416 163.916 70.2974V62.7008ZM171.604 72.3258C170.869 72.3258 170.234 72.1634 169.7 71.8386C169.17 71.5105 168.761 71.0531 168.472 70.4665C168.187 69.8765 168.045 69.1904 168.045 68.4082C168.045 67.626 168.187 66.9366 168.472 66.34C168.761 65.7401 169.162 65.2728 169.675 64.9381C170.192 64.6 170.796 64.431 171.485 64.431C171.883 64.431 172.276 64.4972 172.663 64.6298C173.051 64.7624 173.404 64.9778 173.722 65.2761C174.041 65.5711 174.294 65.9622 174.483 66.4494C174.672 66.9366 174.766 67.5365 174.766 68.2491V68.7463H168.88V67.7321H173.573C173.573 67.3012 173.487 66.9167 173.315 66.5787C173.146 66.2406 172.904 65.9738 172.589 65.7783C172.277 65.5827 171.909 65.4849 171.485 65.4849C171.018 65.4849 170.613 65.6009 170.272 65.8329C169.934 66.0616 169.674 66.3599 169.491 66.7278C169.309 67.0957 169.218 67.4901 169.218 67.9111V68.5872C169.218 69.1639 169.317 69.6528 169.516 70.0538C169.719 70.4515 169.999 70.7548 170.357 70.9636C170.715 71.1691 171.13 71.2719 171.604 71.2719C171.913 71.2719 172.191 71.2288 172.44 71.1426C172.692 71.0531 172.909 70.9205 173.091 70.7449C173.273 70.5659 173.414 70.3438 173.514 70.0787L174.647 70.3969C174.528 70.7813 174.327 71.1194 174.045 71.4111C173.764 71.6994 173.416 71.9248 173.001 72.0872C172.587 72.2463 172.121 72.3258 171.604 72.3258Z" fill="#68D391"/>
<path d="M217.118 61.9849V65.4849H216.024V61.9849H217.118ZM219.207 72.1667V64.5304H220.341V65.6838H220.42C220.56 65.306 220.812 64.9994 221.176 64.764C221.541 64.5287 221.952 64.4111 222.409 64.4111C222.495 64.4111 222.603 64.4127 222.732 64.416C222.862 64.4194 222.959 64.4243 223.026 64.431V65.6241C222.986 65.6142 222.895 65.5993 222.752 65.5794C222.613 65.5562 222.465 65.5446 222.31 65.5446C221.938 65.5446 221.607 65.6225 221.315 65.7783C221.027 65.9307 220.798 66.1428 220.629 66.4146C220.464 66.6831 220.381 66.9897 220.381 67.3344V72.1667H219.207ZM227.386 72.3258C226.65 72.3258 226.015 72.1634 225.482 71.8386C224.951 71.5105 224.542 71.0531 224.254 70.4665C223.969 69.8765 223.826 69.1904 223.826 68.4082C223.826 67.626 223.969 66.9366 224.254 66.34C224.542 65.7401 224.943 65.2728 225.457 64.9381C225.974 64.6 226.577 64.431 227.266 64.431C227.664 64.431 228.057 64.4972 228.445 64.6298C228.832 64.7624 229.185 64.9778 229.504 65.2761C229.822 65.5711 230.075 65.9622 230.264 66.4494C230.453 66.9366 230.548 67.5365 230.548 68.2491V68.7463H224.661V67.7321H229.354C229.354 67.3012 229.268 66.9167 229.096 66.5787C228.927 66.2406 228.685 65.9738 228.37 65.7783C228.058 65.5827 227.691 65.4849 227.266 65.4849C226.799 65.4849 226.395 65.6009 226.053 65.8329C225.715 66.0616 225.455 66.3599 225.273 66.7278C225.09 67.0957 224.999 67.4901 224.999 67.9111V68.5872C224.999 69.1639 225.099 69.6528 225.298 70.0538C225.5 70.4515 225.78 70.7548 226.138 70.9636C226.496 71.1691 226.912 71.2719 227.386 71.2719C227.694 71.2719 227.972 71.2288 228.221 71.1426C228.473 71.0531 228.69 70.9205 228.872 70.7449C229.054 70.5659 229.195 70.3438 229.295 70.0787L230.428 70.3969C230.309 70.7813 230.108 71.1194 229.827 71.4111C229.545 71.6994 229.197 71.9248 228.783 72.0872C228.368 72.2463 227.903 72.3258 227.386 72.3258ZM234.58 72.3457C234.096 72.3457 233.657 72.2546 233.262 72.0723C232.868 71.8867 232.554 71.6199 232.322 71.2719C232.09 70.9205 231.974 70.4963 231.974 69.9991C231.974 69.5616 232.061 69.207 232.233 68.9352C232.405 68.6601 232.636 68.4447 232.924 68.2889C233.212 68.1331 233.531 68.0171 233.879 67.9409C234.23 67.8614 234.583 67.7984 234.938 67.752C235.402 67.6923 235.778 67.6476 236.066 67.6177C236.358 67.5846 236.57 67.5299 236.702 67.4537C236.838 67.3774 236.906 67.2449 236.906 67.056V67.0162C236.906 66.5256 236.772 66.1445 236.504 65.8727C236.238 65.6009 235.836 65.465 235.295 65.465C234.735 65.465 234.296 65.5877 233.978 65.8329C233.66 66.0782 233.436 66.34 233.307 66.6185L232.193 66.2207C232.392 65.7567 232.657 65.3954 232.989 65.1369C233.323 64.8751 233.688 64.6928 234.082 64.59C234.48 64.484 234.871 64.431 235.256 64.431C235.501 64.431 235.783 64.4608 236.101 64.5204C236.422 64.5768 236.732 64.6944 237.031 64.8734C237.332 65.0524 237.582 65.3225 237.781 65.6838C237.98 66.0451 238.08 66.529 238.08 67.1355V72.1667H236.906V71.1327H236.847C236.767 71.2984 236.634 71.4757 236.449 71.6646C236.263 71.8535 236.016 72.0143 235.708 72.1469C235.4 72.2794 235.024 72.3457 234.58 72.3457ZM234.759 71.2917C235.223 71.2917 235.614 71.2006 235.932 71.0183C236.253 70.836 236.495 70.6007 236.658 70.3123C236.823 70.024 236.906 69.7207 236.906 69.4025V68.3287C236.857 68.3883 236.747 68.443 236.578 68.4927C236.412 68.5391 236.22 68.5806 236.001 68.617C235.786 68.6502 235.576 68.68 235.37 68.7065C235.168 68.7297 235.004 68.7496 234.878 68.7662C234.573 68.806 234.288 68.8706 234.023 68.9601C233.761 69.0462 233.549 69.1772 233.386 69.3528C233.227 69.5252 233.148 69.7605 233.148 70.0588C233.148 70.4665 233.299 70.7747 233.6 70.9835C233.905 71.189 234.291 71.2917 234.759 71.2917ZM243.323 72.3258C242.607 72.3258 241.991 72.1568 241.474 71.8187C240.957 71.4807 240.559 71.015 240.281 70.4217C240.002 69.8284 239.863 69.1506 239.863 68.3883C239.863 67.6128 240.006 66.9283 240.291 66.3351C240.579 65.7385 240.98 65.2728 241.494 64.9381C242.011 64.6 242.614 64.431 243.303 64.431C243.84 64.431 244.324 64.5304 244.755 64.7292C245.186 64.9281 245.539 65.2065 245.814 65.5645C246.089 65.9224 246.26 66.34 246.326 66.8173H245.153C245.063 66.4693 244.865 66.1611 244.556 65.8926C244.251 65.6208 243.84 65.4849 243.323 65.4849C242.866 65.4849 242.465 65.6042 242.12 65.8429C241.779 66.0782 241.512 66.4113 241.32 66.8422C241.131 67.2697 241.036 67.7719 241.036 68.3486C241.036 68.9385 241.129 69.4523 241.315 69.8898C241.504 70.3273 241.769 70.667 242.11 70.9089C242.455 71.1509 242.859 71.2719 243.323 71.2719C243.628 71.2719 243.905 71.2188 244.154 71.1128C244.402 71.0067 244.613 70.8542 244.785 70.6554C244.957 70.4565 245.08 70.2179 245.153 69.9395H246.326C246.26 70.3902 246.096 70.7962 245.834 71.1575C245.575 71.5155 245.232 71.8005 244.805 72.0126C244.381 72.2214 243.887 72.3258 243.323 72.3258ZM251.362 64.5304V65.5247H247.405V64.5304H251.362ZM248.558 62.7008H249.732V69.9792C249.732 70.3107 249.78 70.5593 249.876 70.725C249.975 70.8874 250.101 70.9968 250.254 71.0531C250.41 71.1061 250.574 71.1327 250.746 71.1327C250.875 71.1327 250.981 71.126 251.064 71.1128C251.147 71.0962 251.213 71.0829 251.263 71.073L251.502 72.127C251.422 72.1568 251.311 72.1866 251.169 72.2165C251.026 72.2496 250.845 72.2662 250.627 72.2662C250.295 72.2662 249.97 72.1949 249.652 72.0524C249.337 71.9099 249.075 71.6928 248.867 71.4011C248.661 71.1095 248.558 70.7416 248.558 70.2974V62.7008ZM254.142 61.9849V65.4849H253.048V61.9849H254.142Z" fill="#F687B3"/>
</g>
</g>
<path d="M48 24.6667H466V23.3333H48V24.6667ZM481.333 40V304.34H482.667V40H481.333ZM466 319.673H48V321.007H466V319.673ZM32.6667 304.34V40H31.3333V304.34H32.6667ZM48 319.673C39.5316 319.673 32.6667 312.808 32.6667 304.34H31.3333C31.3333 313.545 38.7952 321.007 48 321.007V319.673ZM481.333 304.34C481.333 312.808 474.468 319.673 466 319.673V321.007C475.205 321.007 482.667 313.545 482.667 304.34H481.333ZM466 24.6667C474.468 24.6667 481.333 31.5316 481.333 40H482.667C482.667 30.7953 475.205 23.3333 466 23.3333V24.6667ZM48 23.3333C38.7953 23.3333 31.3333 30.7953 31.3333 40H32.6667C32.6667 31.5317 39.5316 24.6667 48 24.6667V23.3333Z" fill="#404040" mask="url(#path-1-inside-1_364_1121)"/>
</g>
<defs>
<filter id="filter0_d_364_1121" x="0" y="0" width="514" height="360.34" filterUnits="userSpaceOnUse" color-interpolation-filters="sRGB">
<feFlood flood-opacity="0" result="BackgroundImageFix"/>
<feColorMatrix in="SourceAlpha" type="matrix" values="0 0 0 0 0 0 0 0 0 0 0 0 0 0 0 0 0 0 127 0" result="hardAlpha"/>
<feOffset dy="8"/>
<feGaussianBlur stdDeviation="16"/>
<feComposite in2="hardAlpha" operator="out"/>
<feColorMatrix type="matrix" values="0 0 0 0 0 0 0 0 0 0 0 0 0 0 0 0 0 0 0.2 0"/>
<feBlend mode="normal" in2="BackgroundImageFix" result="effect1_dropShadow_364_1121"/>
<feBlend mode="normal" in="SourceGraphic" in2="effect1_dropShadow_364_1121" result="shape"/>
</filter>
<clipPath id="clip0_364_1121">
<path d="M32 40C32 31.1635 39.1634 24 48 24H466C474.837 24 482 31.1634 482 40V304.34C482 313.177 474.837 320.34 466 320.34H48C39.1634 320.34 32 313.177 32 304.34V40Z" fill="white"/>
</clipPath>
<clipPath id="clip1_364_1121">
<rect width="384.67" height="231" fill="white" transform="translate(64.6667 56.6667)"/>
</clipPath>
</defs>
</svg>
