<svg width="73" height="72" viewBox="0 0 73 72" fill="none" xmlns="http://www.w3.org/2000/svg">
<rect x="0.833374" y="0.5" width="71" height="71" rx="15.5" fill="url(#paint0_linear_306_576)"/>
<rect x="0.833374" y="0.5" width="71" height="71" rx="15.5" stroke="#C4E2E3"/>
<g clip-path="url(#clip0_306_576)">
<g clip-path="url(#clip1_306_576)">
<path d="M36.3334 52.5C34.0791 52.4998 31.8769 51.8224 30.0123 50.5556C28.1476 49.2887 26.7065 47.491 25.8759 45.3953C25.0453 43.2996 24.8634 41.0028 25.3538 38.8025C25.8442 36.6022 26.9844 34.6 28.6264 33.0555C30.6394 31.161 35.5834 27.75 34.8334 20.25C43.8334 26.25 48.3334 32.25 39.3334 41.25C40.8334 41.25 43.0834 41.25 46.8334 37.545C47.2384 38.7045 47.5834 39.951 47.5834 41.25C47.5834 44.2337 46.3981 47.0952 44.2883 49.205C42.1786 51.3147 39.3171 52.5 36.3334 52.5Z" fill="#84D1D1"/>
<path d="M36.3334 52.5C34.0791 52.4998 31.8769 51.8224 30.0123 50.5556C28.1476 49.2887 26.7065 47.491 25.8759 45.3953C25.0453 43.2996 24.8634 41.0028 25.3538 38.8025C25.8442 36.6022 26.9844 34.6 28.6264 33.0555C30.6394 31.161 35.5834 27.75 34.8334 20.25C43.8334 26.25 48.3334 32.25 39.3334 41.25C40.8334 41.25 43.0834 41.25 46.8334 37.545C47.2384 38.7045 47.5834 39.951 47.5834 41.25C47.5834 44.2337 46.3981 47.0952 44.2883 49.205C42.1786 51.3147 39.3171 52.5 36.3334 52.5Z" fill="url(#paint1_linear_306_576)" fill-opacity="0.24"/>
<path d="M36.3334 52.5C34.0791 52.4998 31.8769 51.8224 30.0123 50.5556C28.1476 49.2887 26.7065 47.491 25.8759 45.3953C25.0453 43.2996 24.8634 41.0028 25.3538 38.8025C25.8442 36.6022 26.9844 34.6 28.6264 33.0555C30.6394 31.161 35.5834 27.75 34.8334 20.25C43.8334 26.25 48.3334 32.25 39.3334 41.25C40.8334 41.25 43.0834 41.25 46.8334 37.545C47.2384 38.7045 47.5834 39.951 47.5834 41.25C47.5834 44.2337 46.3981 47.0952 44.2883 49.205C42.1786 51.3147 39.3171 52.5 36.3334 52.5Z" fill="url(#paint2_linear_306_576)" fill-opacity="0.24"/>
</g>
</g>
<defs>
<linearGradient id="paint0_linear_306_576" x1="36.3334" y1="0" x2="36.3334" y2="72" gradientUnits="userSpaceOnUse">
<stop stop-color="#F5FFFF"/>
<stop offset="1" stop-color="#D0F0F1"/>
</linearGradient>
<linearGradient id="paint1_linear_306_576" x1="36.3334" y1="20.25" x2="36.3334" y2="52.5" gradientUnits="userSpaceOnUse">
<stop stop-color="white"/>
<stop offset="1" stop-color="white" stop-opacity="0"/>
</linearGradient>
<linearGradient id="paint2_linear_306_576" x1="36.3339" y1="20.25" x2="36.3339" y2="52.5" gradientUnits="userSpaceOnUse">
<stop stop-color="white"/>
<stop offset="1" stop-color="white" stop-opacity="0"/>
</linearGradient>
<clipPath id="clip0_306_576">
<rect width="48" height="48" fill="white" transform="translate(12.3334 12)"/>
</clipPath>
<clipPath id="clip1_306_576">
<rect width="48" height="48" fill="white" transform="translate(12.3334 12)"/>
</clipPath>
</defs>
</svg>
