<svg width="24" height="24" viewBox="0 0 24 24" fill="none" xmlns="http://www.w3.org/2000/svg">
<path d="M5.62502 16.4985H12.375C12.6601 16.4986 12.9344 16.6069 13.1427 16.8015C13.351 16.9961 13.4776 17.2624 13.4971 17.5468C13.5165 17.8312 13.4272 18.1123 13.2474 18.3334C13.0675 18.5546 12.8104 18.6991 12.528 18.738L12.375 18.7485H5.62502C5.33999 18.7484 5.06561 18.6401 4.85734 18.4455C4.64906 18.2509 4.52241 17.9846 4.50298 17.7002C4.48356 17.4158 4.5728 17.1347 4.75267 16.9136C4.93255 16.6924 5.18965 16.5479 5.47202 16.509L5.62502 16.4985ZM7.83002 7.8285C8.02069 7.6382 8.27332 7.52263 8.54198 7.50281C8.81064 7.48299 9.07749 7.56024 9.29402 7.7205L9.42002 7.83L14.67 13.08C14.8695 13.281 14.9858 13.5498 14.9957 13.8328C15.0057 14.1158 14.9086 14.3921 14.7238 14.6066C14.539 14.8212 14.2801 14.9581 13.9987 14.9902C13.7174 15.0222 13.4343 14.947 13.206 14.7795L13.08 14.67L7.83002 9.42C7.61935 9.20906 7.50101 8.92313 7.50101 8.625C7.50101 8.32687 7.61935 8.03944 7.83002 7.8285ZM17.625 4.5C17.8969 4.50001 18.1595 4.59846 18.3644 4.77715C18.5693 4.95584 18.7026 5.20267 18.7395 5.472L18.75 5.625V12.375C18.7499 12.66 18.6417 12.9344 18.4471 13.1427C18.2525 13.351 17.9861 13.4776 17.7017 13.497C17.4173 13.5165 17.1362 13.4272 16.9151 13.2474C16.694 13.0675 16.5494 12.8104 16.5105 12.528L16.5 12.375V5.625C16.5 5.32663 16.6186 5.04048 16.8295 4.8295C17.0405 4.61853 17.3267 4.5 17.625 4.5Z" fill="#50DABD"/>
</svg>
