<svg width="18" height="22" viewBox="0 0 18 22" fill="none" xmlns="http://www.w3.org/2000/svg">
<path d="M11.7 1C13.38 1 14.22 1 14.862 1.34C15.4313 1.64347 15.8902 2.11912 16.173 2.699C16.5 3.364 16.5 4.235 16.5 5.978V16.022C16.5 17.765 16.5 18.636 16.173 19.302C15.8902 19.8819 15.4313 20.3575 14.862 20.661C14.22 21 13.38 21 11.7 21H6.3C4.62 21 3.78 21 3.138 20.66C2.56866 20.3565 2.10981 19.8809 1.827 19.301C1.5 18.636 1.5 17.765 1.5 16.022V5.978C1.5 4.235 1.5 3.364 1.827 2.698C2.10998 2.11849 2.56882 1.64321 3.138 1.34C3.78 1 4.62 1 6.3 1H11.7Z" stroke="#818181" stroke-width="1.5" stroke-linecap="round" stroke-linejoin="round"/>
<path d="M6.5 20V14.5C6.5 13.9696 6.71071 13.4609 7.08579 13.0858C7.46086 12.7107 7.96957 12.5 8.5 12.5H9.5C10.0304 12.5 10.5391 12.7107 10.9142 13.0858C11.2893 13.4609 11.5 13.9696 11.5 14.5V20M7 5H5M7 9H5M13 5H11M13 9H11" stroke="#818181" stroke-width="1.5" stroke-linecap="round" stroke-linejoin="round"/>
</svg>
