<svg width="25" height="24" viewBox="0 0 25 24" fill="none" xmlns="http://www.w3.org/2000/svg">
<path d="M12.3335 15.5C12.8835 15.5 13.3545 15.3043 13.7465 14.913C14.1385 14.5217 14.3342 14.0507 14.3335 13.5C14.3328 12.9493 14.1372 12.4787 13.7465 12.088C13.3558 11.6973 12.8848 11.5013 12.3335 11.5C11.7822 11.4987 11.3115 11.6947 10.9215 12.088C10.5315 12.4813 10.3355 12.952 10.3335 13.5C10.3315 14.048 10.5275 14.519 10.9215 14.913C11.3155 15.307 11.7862 15.5027 12.3335 15.5ZM4.3335 21C3.7835 21 3.31283 20.8043 2.9215 20.413C2.53016 20.0217 2.33416 19.5507 2.3335 19V8C2.3335 7.45 2.5295 6.97933 2.9215 6.588C3.3135 6.19667 3.78416 6.00067 4.3335 6H8.3335V4C8.3335 3.45 8.5295 2.97933 8.9215 2.588C9.3135 2.19667 9.78416 2.00067 10.3335 2H14.3335C14.8835 2 15.3545 2.196 15.7465 2.588C16.1385 2.98 16.3342 3.45067 16.3335 4V6H20.3335C20.8835 6 21.3545 6.196 21.7465 6.588C22.1385 6.98 22.3342 7.45067 22.3335 8V19C22.3335 19.55 22.1378 20.021 21.7465 20.413C21.3552 20.805 20.8842 21.0007 20.3335 21H4.3335ZM4.3335 19H20.3335V8H4.3335V19ZM10.3335 6H14.3335V4H10.3335V6Z" fill="#E7A53F"/>
</svg>
