<svg width="118" height="24" viewBox="0 0 118 24" fill="none" xmlns="http://www.w3.org/2000/svg">
<rect x="0.666748" width="117" height="24" rx="12" fill="#40A2E3"/>
<path d="M18.4993 12L19.2353 10.728C19.3238 10.5749 19.3479 10.393 19.3022 10.2222C19.2566 10.0515 19.145 9.90581 18.992 9.81729L17.7187 9.08129V7.61462C17.7187 7.43781 17.6484 7.26824 17.5234 7.14322C17.3984 7.01819 17.2288 6.94796 17.052 6.94796H15.586L14.8507 5.67529C14.7623 5.52218 14.6167 5.41043 14.446 5.36462C14.3614 5.34196 14.2732 5.33618 14.1864 5.34762C14.0996 5.35906 14.0158 5.38749 13.94 5.43129L12.6667 6.16729L11.3933 5.43062C11.2402 5.34222 11.0583 5.31827 10.8875 5.36402C10.7167 5.40978 10.5711 5.52151 10.4827 5.67462L9.74667 6.94796H8.28067C8.10386 6.94796 7.93429 7.01819 7.80927 7.14322C7.68424 7.26824 7.614 7.43781 7.614 7.61462V9.08062L6.34067 9.81662C6.26482 9.86046 6.19836 9.9188 6.14507 9.98834C6.09179 10.0579 6.05273 10.1372 6.03013 10.2219C6.00753 10.3065 6.00184 10.3948 6.01337 10.4816C6.0249 10.5684 6.05343 10.6522 6.09734 10.728L6.83334 12L6.09734 13.272C6.00933 13.4251 5.98545 13.6069 6.03091 13.7776C6.07637 13.9483 6.18747 14.0942 6.34 14.1833L7.61334 14.9193V16.3853C7.61334 16.5621 7.68358 16.7317 7.8086 16.8567C7.93362 16.9817 8.10319 17.052 8.28 17.052H9.74667L10.4827 18.3253C10.5417 18.4262 10.626 18.51 10.7272 18.5684C10.8284 18.6269 10.9431 18.658 11.06 18.6586C11.176 18.6586 11.2913 18.628 11.394 18.5686L12.666 17.8326L13.9393 18.5686C14.0924 18.6571 14.2743 18.6811 14.4451 18.6355C14.6158 18.5899 14.7615 18.4783 14.85 18.3253L15.5853 17.052H17.0513C17.2281 17.052 17.3977 16.9817 17.5227 16.8567C17.6478 16.7317 17.718 16.5621 17.718 16.3853V14.9193L18.9913 14.1833C19.0672 14.1395 19.1336 14.0811 19.1869 14.0116C19.2402 13.942 19.2793 13.8627 19.3019 13.7781C19.3245 13.6934 19.3302 13.6052 19.3186 13.5183C19.3071 13.4315 19.2786 13.3478 19.2347 13.272L18.4993 12ZM10.9993 8.65996C11.2646 8.66005 11.519 8.76552 11.7066 8.95318C11.8941 9.14084 11.9994 9.39532 11.9993 9.66062C11.9992 9.92593 11.8938 10.1803 11.7061 10.3679C11.5184 10.5554 11.264 10.6607 10.9987 10.6606C10.7334 10.6605 10.479 10.5551 10.2914 10.3674C10.1039 10.1797 9.99858 9.92526 9.99867 9.65996C9.99876 9.39465 10.1042 9.14025 10.2919 8.95271C10.4796 8.76518 10.734 8.65987 10.9993 8.65996ZM11.1993 15.06L10.1327 14.2606L14.1327 8.92729L15.1993 9.72662L11.1993 15.06ZM14.3327 15.3266C14.2013 15.3266 14.0712 15.3007 13.9499 15.2503C13.8285 15.2 13.7183 15.1263 13.6254 15.0334C13.5326 14.9405 13.4589 14.8302 13.4087 14.7088C13.3585 14.5874 13.3326 14.4573 13.3327 14.326C13.3327 14.1946 13.3586 14.0645 13.4089 13.9432C13.4593 13.8218 13.533 13.7116 13.6259 13.6187C13.7188 13.5259 13.8291 13.4522 13.9505 13.402C14.0719 13.3517 14.202 13.3259 14.3333 13.326C14.5986 13.326 14.853 13.4315 15.0406 13.6192C15.2281 13.8068 15.3334 14.0613 15.3333 14.3266C15.3332 14.5919 15.2278 14.8463 15.0401 15.0339C14.8524 15.2214 14.598 15.3267 14.3327 15.3266Z" fill="white"/>
<path d="M31.7236 7.77273H32.9849L35.9508 15.017H36.0531L39.019 7.77273H40.2804V16.5H39.2917V9.86932H39.2065L36.4792 16.5H35.5247L32.7974 9.86932H32.7122V16.5H31.7236V7.77273ZM44.9221 16.6364C44.3312 16.6364 43.8127 16.4957 43.3667 16.2145C42.9235 15.9332 42.5769 15.5398 42.3269 15.0341C42.0797 14.5284 41.9562 13.9375 41.9562 13.2614C41.9562 12.5795 42.0797 11.9844 42.3269 11.4759C42.5769 10.9673 42.9235 10.5724 43.3667 10.2912C43.8127 10.0099 44.3312 9.86932 44.9221 9.86932C45.513 9.86932 46.03 10.0099 46.4732 10.2912C46.9192 10.5724 47.2658 10.9673 47.513 11.4759C47.763 11.9844 47.888 12.5795 47.888 13.2614C47.888 13.9375 47.763 14.5284 47.513 15.0341C47.2658 15.5398 46.9192 15.9332 46.4732 16.2145C46.03 16.4957 45.513 16.6364 44.9221 16.6364ZM44.9221 15.733C45.3709 15.733 45.7403 15.6179 46.03 15.3878C46.3198 15.1577 46.5343 14.8551 46.6735 14.4801C46.8127 14.1051 46.8823 13.6989 46.8823 13.2614C46.8823 12.8239 46.8127 12.4162 46.6735 12.0384C46.5343 11.6605 46.3198 11.3551 46.03 11.1222C45.7403 10.8892 45.3709 10.7727 44.9221 10.7727C44.4732 10.7727 44.1039 10.8892 43.8141 11.1222C43.5243 11.3551 43.3099 11.6605 43.1707 12.0384C43.0314 12.4162 42.9618 12.8239 42.9618 13.2614C42.9618 13.6989 43.0314 14.1051 43.1707 14.4801C43.3099 14.8551 43.5243 15.1577 43.8141 15.3878C44.1039 15.6179 44.4732 15.733 44.9221 15.733ZM54.0595 11.4205L53.1561 11.6761C53.0993 11.5256 53.0155 11.3793 52.9047 11.2372C52.7967 11.0923 52.649 10.973 52.4615 10.8793C52.274 10.7855 52.0339 10.7386 51.7413 10.7386C51.3408 10.7386 51.0069 10.831 50.7399 11.0156C50.4757 11.1974 50.3436 11.429 50.3436 11.7102C50.3436 11.9602 50.4345 12.1577 50.6163 12.3026C50.7981 12.4474 51.0822 12.5682 51.4686 12.6648L52.4402 12.9034C53.0254 13.0455 53.4615 13.2628 53.7484 13.5554C54.0354 13.8452 54.1788 14.2187 54.1788 14.6761C54.1788 15.0511 54.0709 15.3864 53.855 15.6818C53.6419 15.9773 53.3436 16.2102 52.9601 16.3807C52.5765 16.5511 52.1305 16.6364 51.622 16.6364C50.9544 16.6364 50.4018 16.4915 49.9643 16.2017C49.5268 15.9119 49.2498 15.4886 49.1334 14.9318L50.0879 14.6932C50.1788 15.0455 50.3507 15.3097 50.6035 15.4858C50.8592 15.6619 51.193 15.75 51.605 15.75C52.0737 15.75 52.4459 15.6506 52.7214 15.4517C52.9998 15.25 53.139 15.0085 53.139 14.7273C53.139 14.5 53.0595 14.3097 52.9004 14.1562C52.7413 14 52.497 13.8835 52.1675 13.8068L51.0765 13.5511C50.4771 13.4091 50.0368 13.1889 49.7555 12.8906C49.4771 12.5895 49.3379 12.2131 49.3379 11.7614C49.3379 11.392 49.4416 11.0653 49.649 10.7812C49.8592 10.4972 50.1447 10.2741 50.5055 10.1122C50.8692 9.95028 51.2811 9.86932 51.7413 9.86932C52.389 9.86932 52.8976 10.0114 53.2669 10.2955C53.639 10.5795 53.9033 10.9545 54.0595 11.4205ZM58.5393 9.95455V10.8068H55.1472V9.95455H58.5393ZM56.1359 8.38636H57.1415V14.625C57.1415 14.9091 57.1827 15.1222 57.2651 15.2642C57.3503 15.4034 57.4583 15.4972 57.589 15.5455C57.7225 15.5909 57.8631 15.6136 58.0109 15.6136C58.1216 15.6136 58.2126 15.608 58.2836 15.5966C58.3546 15.5824 58.4114 15.571 58.454 15.5625L58.6586 16.4659C58.5904 16.4915 58.4952 16.517 58.3731 16.5426C58.2509 16.571 58.0961 16.5852 57.9086 16.5852C57.6245 16.5852 57.3461 16.5241 57.0734 16.402C56.8035 16.2798 56.579 16.0938 56.4001 15.8438C56.2239 15.5938 56.1359 15.2784 56.1359 14.8977V8.38636ZM63.5634 16.5V7.77273H66.5123C67.1969 7.77273 67.7566 7.89631 68.1913 8.14347C68.6288 8.38778 68.9526 8.71875 69.1628 9.13636C69.3731 9.55398 69.4782 10.0199 69.4782 10.5341C69.4782 11.0483 69.3731 11.5156 69.1628 11.9361C68.9555 12.3565 68.6344 12.6918 68.1998 12.9418C67.7651 13.1889 67.2083 13.3125 66.5293 13.3125H64.4157V12.375H66.4952C66.964 12.375 67.3404 12.294 67.6245 12.1321C67.9086 11.9702 68.1145 11.7514 68.2424 11.4759C68.3731 11.1974 68.4384 10.8835 68.4384 10.5341C68.4384 10.1847 68.3731 9.87216 68.2424 9.59659C68.1145 9.32102 67.9072 9.10511 67.6202 8.94886C67.3333 8.78977 66.9526 8.71023 66.4782 8.71023H64.6202V16.5H63.5634ZM73.633 16.6364C73.0421 16.6364 72.5236 16.4957 72.0776 16.2145C71.6344 15.9332 71.2878 15.5398 71.0378 15.0341C70.7907 14.5284 70.6671 13.9375 70.6671 13.2614C70.6671 12.5795 70.7907 11.9844 71.0378 11.4759C71.2878 10.9673 71.6344 10.5724 72.0776 10.2912C72.5236 10.0099 73.0421 9.86932 73.633 9.86932C74.2239 9.86932 74.741 10.0099 75.1841 10.2912C75.6302 10.5724 75.9768 10.9673 76.2239 11.4759C76.4739 11.9844 76.5989 12.5795 76.5989 13.2614C76.5989 13.9375 76.4739 14.5284 76.2239 15.0341C75.9768 15.5398 75.6302 15.9332 75.1841 16.2145C74.741 16.4957 74.2239 16.6364 73.633 16.6364ZM73.633 15.733C74.0819 15.733 74.4512 15.6179 74.741 15.3878C75.0307 15.1577 75.2452 14.8551 75.3844 14.4801C75.5236 14.1051 75.5932 13.6989 75.5932 13.2614C75.5932 12.8239 75.5236 12.4162 75.3844 12.0384C75.2452 11.6605 75.0307 11.3551 74.741 11.1222C74.4512 10.8892 74.0819 10.7727 73.633 10.7727C73.1841 10.7727 72.8148 10.8892 72.5251 11.1222C72.2353 11.3551 72.0208 11.6605 71.8816 12.0384C71.7424 12.4162 71.6728 12.8239 71.6728 13.2614C71.6728 13.6989 71.7424 14.1051 71.8816 14.4801C72.0208 14.8551 72.2353 15.1577 72.5251 15.3878C72.8148 15.6179 73.1841 15.733 73.633 15.733ZM78.1341 18.9545V9.95455H79.1057V10.9943H79.225C79.2989 10.8807 79.4011 10.7358 79.5318 10.5597C79.6653 10.3807 79.8557 10.2216 80.1028 10.0824C80.3528 9.94034 80.6909 9.86932 81.117 9.86932C81.6682 9.86932 82.154 10.0071 82.5744 10.2827C82.9949 10.5582 83.323 10.9489 83.5588 11.4545C83.7946 11.9602 83.9125 12.5568 83.9125 13.2443C83.9125 13.9375 83.7946 14.5384 83.5588 15.0469C83.323 15.5526 82.9963 15.9446 82.5787 16.223C82.1611 16.4986 81.6795 16.6364 81.1341 16.6364C80.7136 16.6364 80.377 16.5668 80.1241 16.4276C79.8713 16.2855 79.6767 16.125 79.5403 15.946C79.404 15.7642 79.2989 15.6136 79.225 15.4943H79.1398V18.9545H78.1341ZM79.1227 13.2273C79.1227 13.7216 79.1952 14.1577 79.34 14.5355C79.4849 14.9105 79.6966 15.2045 79.975 15.4176C80.2534 15.6278 80.5943 15.733 80.9977 15.733C81.4182 15.733 81.769 15.6222 82.0503 15.4006C82.3344 15.1761 82.5474 14.875 82.6895 14.4972C82.8344 14.1165 82.9068 13.6932 82.9068 13.2273C82.9068 12.767 82.8358 12.3523 82.6937 11.983C82.5545 11.6108 82.3429 11.3168 82.0588 11.1009C81.7775 10.8821 81.4239 10.7727 80.9977 10.7727C80.5886 10.7727 80.2449 10.8764 79.9665 11.0838C79.6881 11.2884 79.4778 11.5753 79.3358 11.9446C79.1937 12.3111 79.1227 12.7386 79.1227 13.2273ZM89.5716 13.8239V9.95455H90.5773V16.5H89.5716V15.392H89.5034C89.35 15.7244 89.1114 16.0071 88.7875 16.2401C88.4636 16.4702 88.0545 16.5852 87.5602 16.5852C87.1511 16.5852 86.7875 16.4957 86.4693 16.3168C86.1511 16.1349 85.9011 15.8622 85.7193 15.4986C85.5375 15.1321 85.4466 14.6705 85.4466 14.1136V9.95455H86.4523V14.0455C86.4523 14.5227 86.5858 14.9034 86.8528 15.1875C87.1227 15.4716 87.4665 15.6136 87.8841 15.6136C88.1341 15.6136 88.3883 15.5497 88.6469 15.4219C88.9082 15.294 89.127 15.098 89.3031 14.8338C89.4821 14.5696 89.5716 14.233 89.5716 13.8239ZM93.4249 7.77273V16.5H92.4192V7.77273H93.4249ZM97.193 16.6534C96.7783 16.6534 96.4018 16.5753 96.0638 16.419C95.7257 16.2599 95.4572 16.0312 95.2584 15.733C95.0595 15.4318 94.9601 15.0682 94.9601 14.642C94.9601 14.267 95.0339 13.9631 95.1817 13.7301C95.3294 13.4943 95.5268 13.3097 95.774 13.1761C96.0212 13.0426 96.2939 12.9432 96.5922 12.8778C96.8933 12.8097 97.1959 12.7557 97.4998 12.7159C97.8976 12.6648 98.22 12.6264 98.4672 12.6009C98.7172 12.5724 98.899 12.5256 99.0126 12.4602C99.1291 12.3949 99.1873 12.2812 99.1873 12.1193V12.0852C99.1873 11.6648 99.0723 11.3381 98.8422 11.1051C98.6149 10.8722 98.2697 10.7557 97.8067 10.7557C97.3265 10.7557 96.9501 10.8608 96.6774 11.071C96.4047 11.2812 96.2129 11.5057 96.1021 11.7443L95.1476 11.4034C95.318 11.0057 95.5453 10.696 95.8294 10.4744C96.1163 10.25 96.4288 10.0937 96.7669 10.0057C97.1078 9.91477 97.443 9.86932 97.7726 9.86932C97.9828 9.86932 98.2243 9.89489 98.497 9.94602C98.7726 9.99432 99.0382 10.0952 99.2939 10.2486C99.5524 10.402 99.7669 10.6335 99.9373 10.9432C100.108 11.2528 100.193 11.6676 100.193 12.1875V16.5H99.1873V15.6136H99.1362C99.068 15.7557 98.9544 15.9077 98.7953 16.0696C98.6362 16.2315 98.4246 16.3693 98.1604 16.483C97.8962 16.5966 97.5737 16.6534 97.193 16.6534ZM97.3464 15.75C97.7442 15.75 98.0794 15.6719 98.3521 15.5156C98.6277 15.3594 98.8351 15.1577 98.9743 14.9105C99.1163 14.6634 99.1873 14.4034 99.1873 14.1307V13.2102C99.1447 13.2614 99.051 13.3082 98.9061 13.3509C98.764 13.3906 98.5993 13.4261 98.4118 13.4574C98.2271 13.4858 98.0467 13.5114 97.8706 13.5341C97.6973 13.554 97.5567 13.571 97.4487 13.5852C97.1873 13.6193 96.943 13.6747 96.7158 13.7514C96.4913 13.8253 96.3095 13.9375 96.1703 14.0881C96.0339 14.2358 95.9658 14.4375 95.9658 14.6932C95.9658 15.0426 96.095 15.3068 96.3535 15.4858C96.6149 15.6619 96.9459 15.75 97.3464 15.75ZM102.029 16.5V9.95455H103V10.9432H103.068C103.188 10.6193 103.404 10.3565 103.716 10.1548C104.029 9.95312 104.381 9.85227 104.773 9.85227C104.847 9.85227 104.939 9.85369 105.05 9.85653C105.161 9.85937 105.245 9.86364 105.301 9.86932V10.892C105.267 10.8835 105.189 10.8707 105.067 10.8537C104.948 10.8338 104.821 10.8239 104.688 10.8239C104.37 10.8239 104.085 10.8906 103.835 11.0241C103.588 11.1548 103.392 11.3366 103.247 11.5696C103.105 11.7997 103.034 12.0625 103.034 12.358V16.5H102.029Z" fill="white"/>
</svg>
