<svg width="40" height="40" viewBox="0 0 40 40" fill="none" xmlns="http://www.w3.org/2000/svg">
<path d="M8.49705 7.66927C14.6269 2.55007 23.5781 2.24853 30.1374 6.78393L29.8683 4.29492C29.7574 3.41344 30.4046 2.61257 31.3214 2.5107C32.2354 2.40914 33.0643 3.04184 33.1783 3.92235L34.011 10.7894C34.0767 11.2645 33.9204 11.7441 33.5809 12.0952L33.5616 12.1152L33.4547 12.2044L33.4532 12.2057C33.1366 12.4681 32.7301 12.604 32.3147 12.5891L26.4686 13.5576L26.4026 13.5527C25.4869 13.4842 24.7952 12.7124 24.8567 11.8279C24.9151 10.9858 25.6349 10.343 26.4929 10.3364L28.4041 9.53569C22.3813 5.22071 13.9031 6.10722 9.0917 11.6796C4.09357 17.4682 4.93272 26.1351 10.9827 31.0355C16.3539 35.386 24.1499 35.3575 29.3899 30.98L29.3974 30.974C32.7477 28.2781 34.5086 24.1545 34.1106 19.9284C34.0207 19.044 34.6888 18.2575 35.6084 18.1779C36.5237 18.0987 37.3363 18.7503 37.4273 19.6328L37.4276 19.6361C37.9351 24.9022 35.751 30.0516 31.5758 33.4252C24.2786 39.5163 13.2026 38.6808 6.83288 31.5739C0.462217 24.466 1.19987 13.7633 8.49705 7.66927Z" fill="url(#paint0_linear_369_1216)"/>
<path d="M17.7544 14.1888C17.4778 13.0482 15.8556 13.0482 15.579 14.1888L14.8179 17.3273C14.7192 17.7346 14.4012 18.0525 13.994 18.1513L10.8555 18.9123C9.71485 19.1889 9.71485 20.8111 10.8555 21.0877L13.994 21.8487C14.4012 21.9475 14.7192 22.2655 14.8179 22.6727L15.579 25.8112C15.8556 26.9518 17.4778 26.9518 17.7544 25.8112L18.5154 22.6727C18.6142 22.2655 18.9321 21.9475 19.3394 21.8487L22.4779 21.0877C23.6185 20.8111 23.6185 19.1889 22.4779 18.9123L19.3394 18.1513C18.9321 18.0525 18.6142 17.7346 18.5154 17.3273L17.7544 14.1888Z" fill="url(#paint1_linear_369_1216)"/>
<path d="M21.6667 28.3333C21.6667 29.2538 22.4129 30 23.3333 30C24.2538 30 25 29.2538 25 28.3333C25 27.4129 24.2538 26.6667 23.3333 26.6667C22.4129 26.6667 21.6667 27.4129 21.6667 28.3333Z" fill="url(#paint2_linear_369_1216)"/>
<path d="M28.3333 21.6667C27.4129 21.6667 26.6667 20.9205 26.6667 20C26.6667 19.0795 27.4129 18.3333 28.3333 18.3333C29.2538 18.3333 30 19.0795 30 20C30 20.9205 29.2538 21.6667 28.3333 21.6667Z" fill="url(#paint3_linear_369_1216)"/>
<defs>
<linearGradient id="paint0_linear_369_1216" x1="20" y1="2.5" x2="20" y2="37.5" gradientUnits="userSpaceOnUse">
<stop stop-color="#4C4C4C"/>
<stop offset="1" stop-color="#B2B2B2"/>
</linearGradient>
<linearGradient id="paint1_linear_369_1216" x1="20" y1="2.5" x2="20" y2="37.5" gradientUnits="userSpaceOnUse">
<stop stop-color="#4C4C4C"/>
<stop offset="1" stop-color="#B2B2B2"/>
</linearGradient>
<linearGradient id="paint2_linear_369_1216" x1="20" y1="2.5" x2="20" y2="37.5" gradientUnits="userSpaceOnUse">
<stop stop-color="#4C4C4C"/>
<stop offset="1" stop-color="#B2B2B2"/>
</linearGradient>
<linearGradient id="paint3_linear_369_1216" x1="20" y1="2.5" x2="20" y2="37.5" gradientUnits="userSpaceOnUse">
<stop stop-color="#4C4C4C"/>
<stop offset="1" stop-color="#B2B2B2"/>
</linearGradient>
</defs>
</svg>
