<svg width="40" height="40" viewBox="0 0 40 40" fill="none" xmlns="http://www.w3.org/2000/svg">
<path d="M10.7326 6.39022C11.182 4.5367 13.8181 4.5367 14.2676 6.39022L15.5043 11.4903C15.6648 12.1521 16.1814 12.6687 16.8432 12.8292L21.9433 14.0659C23.7968 14.5154 23.7968 17.1515 21.9433 17.6009L16.8432 18.8376C16.1814 18.9981 15.6648 19.5148 15.5043 20.1765L14.2676 25.2766C13.8181 27.1301 11.182 27.1301 10.7326 25.2766L9.49588 20.1765C9.33541 19.5148 8.81872 18.9981 8.15696 18.8376L3.05689 17.6009C1.20337 17.1515 1.20337 14.5154 3.05689 14.0659L8.15696 12.8292C8.81872 12.6687 9.33541 12.1521 9.49588 11.4903L10.7326 6.39022Z" fill="url(#paint0_linear_369_1222)"/>
<path d="M25.579 24.1889C25.8556 23.0483 27.4779 23.0483 27.7544 24.1889L28.5155 27.3274C28.6142 27.7346 28.9322 28.0526 29.3394 28.1513L32.4779 28.9124C33.6186 29.189 33.6186 30.8112 32.4779 31.0878L29.3394 31.8488C28.9322 31.9476 28.6142 32.2655 28.5155 32.6728L27.7544 35.8113C27.4779 36.9519 25.8556 36.9519 25.579 35.8113L24.818 32.6728C24.7193 32.2655 24.4013 31.9476 23.9941 31.8488L20.8556 31.0878C19.7149 30.8112 19.7149 29.189 20.8556 28.9124L23.9941 28.1513C24.4013 28.0526 24.7193 27.7346 24.818 27.3274L25.579 24.1889Z" fill="url(#paint1_linear_369_1222)"/>
<path d="M30.9529 6.18648C31.1345 5.43795 32.199 5.43795 32.3806 6.18648L32.88 8.24613C32.9448 8.51338 33.1535 8.72204 33.4207 8.78685L35.4803 9.28628C36.2289 9.46779 36.2289 10.5324 35.4803 10.7139L33.4207 11.2133C33.1535 11.2781 32.9448 11.4868 32.88 11.754L32.3806 13.8137C32.199 14.5622 31.1345 14.5622 30.9529 13.8137L30.4535 11.754C30.3887 11.4868 30.18 11.2781 29.9128 11.2133L27.8532 10.7139C27.1046 10.5324 27.1046 9.46779 27.8531 9.28628L29.9128 8.78685C30.18 8.72204 30.3887 8.51338 30.4535 8.24613L30.9529 6.18648Z" fill="url(#paint2_linear_369_1222)"/>
<path fill-rule="evenodd" clip-rule="evenodd" d="M31.6667 6.5519L31.2591 8.23294C31.0962 8.90488 30.5715 9.42952 29.8996 9.59245L28.2186 10.0001L29.8996 10.4077C30.5715 10.5706 31.0962 11.0953 31.2591 11.7672L31.6667 13.4483L32.0744 11.7672C32.2373 11.0953 32.762 10.5706 33.4339 10.4077L35.1149 10.0001L33.4339 9.59245C32.7619 9.42952 32.2373 8.90488 32.0744 8.23294L31.6667 6.5519ZM32.4825 5.64168C32.2751 4.78621 31.0584 4.78621 30.851 5.64168L30.2802 7.99556C30.2061 8.30099 29.9677 8.53946 29.6622 8.61353L27.3084 9.18431C26.4529 9.39175 26.4529 10.6084 27.3084 10.8159L29.6622 11.3866C29.9677 11.4607 30.2061 11.6992 30.2802 12.0046L30.851 14.3585C31.0584 15.214 32.2751 15.214 32.4825 14.3585L33.0533 12.0046C33.1274 11.6992 33.3658 11.4607 33.6713 11.3866L36.0252 10.8159C36.8806 10.6084 36.8806 9.39175 36.0252 9.18431L33.6713 8.61352C33.3658 8.53946 33.1274 8.30099 33.0533 7.99556L32.4825 5.64168Z" fill="url(#paint3_linear_369_1222)"/>
<path d="M11.6667 38.3334C10.7463 38.3334 10.0001 37.5872 10.0001 36.6667C10.0001 35.7463 10.7463 35.0001 11.6667 35.0001C12.5872 35.0001 13.3334 35.7463 13.3334 36.6667C13.3334 37.5872 12.5872 38.3334 11.6667 38.3334Z" fill="url(#paint4_linear_369_1222)"/>
<path d="M3.33341 31.6667C2.41294 31.6667 1.66675 30.9206 1.66675 30.0001C1.66675 29.0796 2.41294 28.3334 3.33341 28.3334C4.25389 28.3334 5.00008 29.0796 5.00008 30.0001C5.00008 30.9206 4.25389 31.6667 3.33341 31.6667Z" fill="url(#paint5_linear_369_1222)"/>
<path d="M21.6667 5.00008C20.7463 5.00008 20.0001 4.25389 20.0001 3.33341C20.0001 2.41294 20.7463 1.66675 21.6667 1.66675C22.5872 1.66675 23.3334 2.41294 23.3334 3.33341C23.3334 4.25389 22.5872 5.00008 21.6667 5.00008Z" fill="url(#paint6_linear_369_1222)"/>
<path d="M36.6667 23.3334C35.7463 23.3334 35.0001 22.5872 35.0001 21.6667C35.0001 20.7463 35.7463 20.0001 36.6667 20.0001C37.5872 20.0001 38.3334 20.7463 38.3334 21.6667C38.3334 22.5872 37.5872 23.3334 36.6667 23.3334Z" fill="url(#paint7_linear_369_1222)"/>
<defs>
<linearGradient id="paint0_linear_369_1222" x1="20.0001" y1="1.66675" x2="20.0001" y2="38.3334" gradientUnits="userSpaceOnUse">
<stop stop-color="#4C4C4C"/>
<stop offset="1" stop-color="#B2B2B2"/>
</linearGradient>
<linearGradient id="paint1_linear_369_1222" x1="20.0001" y1="1.66675" x2="20.0001" y2="38.3334" gradientUnits="userSpaceOnUse">
<stop stop-color="#4C4C4C"/>
<stop offset="1" stop-color="#B2B2B2"/>
</linearGradient>
<linearGradient id="paint2_linear_369_1222" x1="20.0001" y1="1.66675" x2="20.0001" y2="38.3334" gradientUnits="userSpaceOnUse">
<stop stop-color="#4C4C4C"/>
<stop offset="1" stop-color="#B2B2B2"/>
</linearGradient>
<linearGradient id="paint3_linear_369_1222" x1="20.0001" y1="1.66675" x2="20.0001" y2="38.3334" gradientUnits="userSpaceOnUse">
<stop stop-color="#4C4C4C"/>
<stop offset="1" stop-color="#B2B2B2"/>
</linearGradient>
<linearGradient id="paint4_linear_369_1222" x1="20.0001" y1="1.66675" x2="20.0001" y2="38.3334" gradientUnits="userSpaceOnUse">
<stop stop-color="#4C4C4C"/>
<stop offset="1" stop-color="#B2B2B2"/>
</linearGradient>
<linearGradient id="paint5_linear_369_1222" x1="20.0001" y1="1.66675" x2="20.0001" y2="38.3334" gradientUnits="userSpaceOnUse">
<stop stop-color="#4C4C4C"/>
<stop offset="1" stop-color="#B2B2B2"/>
</linearGradient>
<linearGradient id="paint6_linear_369_1222" x1="20.0001" y1="1.66675" x2="20.0001" y2="38.3334" gradientUnits="userSpaceOnUse">
<stop stop-color="#4C4C4C"/>
<stop offset="1" stop-color="#B2B2B2"/>
</linearGradient>
<linearGradient id="paint7_linear_369_1222" x1="20.0001" y1="1.66675" x2="20.0001" y2="38.3334" gradientUnits="userSpaceOnUse">
<stop stop-color="#4C4C4C"/>
<stop offset="1" stop-color="#B2B2B2"/>
</linearGradient>
</defs>
</svg>
